<?xml version="1.0" encoding="UTF-8"?>
<svg version="1.1" xmlns="http://www.w3.org/2000/svg" width="1057" height="808">
<path d="M0 0 C-0.33 4.29 -0.66 8.58 -1 13 C-0.34 13 0.32 13 1 13 C1 16.96 1 20.92 1 25 C0.01 25 -0.98 25 -2 25 C-2 28.96 -2 32.92 -2 37 C-2.99 37 -3.98 37 -5 37 C-5 40.96 -5 44.92 -5 49 C-5.99 49 -6.98 49 -8 49 C-8 52.96 -8 56.92 -8 61 C-8.99 61 -9.98 61 -11 61 C-11 64.96 -11 68.92 -11 73 C-11.99 73 -12.98 73 -14 73 C-14 76.96 -14 80.92 -14 85 C-14.99 85 -15.98 85 -17 85 C-17 88.96 -17 92.92 -17 97 C-17.99 97 -18.98 97 -20 97 C-20 100.96 -20 104.92 -20 109 C-20.99 109 -21.98 109 -23 109 C-23 112.96 -23 116.92 -23 121 C-23.99 121 -24.98 121 -26 121 C-26 124.96 -26 128.92 -26 133 C-26.99 133 -27.98 133 -29 133 C-29 136.96 -29 140.92 -29 145 C-29.99 145 -30.98 145 -32 145 C-32 148.96 -32 152.92 -32 157 C-32.99 157 -33.98 157 -35 157 C-35 160.96 -35 164.92 -35 169 C-35.99 169 -36.98 169 -38 169 C-38 172.96 -38 176.92 -38 181 C-38.99 181 -39.98 181 -41 181 C-41 184.96 -41 188.92 -41 193 C-41.99 193 -42.98 193 -44 193 C-44 196.96 -44 200.92 -44 205 C-44.99 205 -45.98 205 -47 205 C-47 208.96 -47 212.92 -47 217 C-47.99 217 -48.98 217 -50 217 C-50 220.96 -50 224.92 -50 229 C-50.99 229 -51.98 229 -53 229 C-53 232.96 -53 236.92 -53 241 C-53.99 241 -54.98 241 -56 241 C-56 244.96 -56 248.92 -56 253 C-56.99 253 -57.98 253 -59 253 C-59 256.96 -59 260.92 -59 265 C-59.99 265 -60.98 265 -62 265 C-62 268.96 -62 272.92 -62 277 C-62.99 277 -63.98 277 -65 277 C-65 281.95 -65 286.9 -65 292 C-65.99 292 -66.98 292 -68 292 C-68 295.96 -68 299.92 -68 304 C-68.99 304 -69.98 304 -71 304 C-71 307.96 -71 311.92 -71 316 C-71.99 316 -72.98 316 -74 316 C-74 319.96 -74 323.92 -74 328 C-74.99 328 -75.98 328 -77 328 C-77 331.96 -77 335.92 -77 340 C-77.99 340 -78.98 340 -80 340 C-80 343.96 -80 347.92 -80 352 C-80.99 352 -81.98 352 -83 352 C-83 355.96 -83 359.92 -83 364 C-83.99 364 -84.98 364 -86 364 C-86 367.96 -86 371.92 -86 376 C-86.99 376 -87.98 376 -89 376 C-89 379.96 -89 383.92 -89 388 C-89.99 388 -90.98 388 -92 388 C-92 391.96 -92 395.92 -92 400 C-92.99 400 -93.98 400 -95 400 C-95 403.96 -95 407.92 -95 412 C-95.99 412 -96.98 412 -98 412 C-98 415.96 -98 419.92 -98 424 C-98.99 424 -99.98 424 -101 424 C-101 427.96 -101 431.92 -101 436 C-101.99 436 -102.98 436 -104 436 C-104 439.96 -104 443.92 -104 448 C-104.99 448 -105.98 448 -107 448 C-107 451.96 -107 455.92 -107 460 C-107.99 460 -108.98 460 -110 460 C-110 463.96 -110 467.92 -110 472 C-110.99 472 -111.98 472 -113 472 C-113 475.96 -113 479.92 -113 484 C-113.99 484 -114.98 484 -116 484 C-116 487.96 -116 491.92 -116 496 C-116.99 496 -117.98 496 -119 496 C-119 499.96 -119 503.92 -119 508 C-119.99 508 -120.98 508 -122 508 C-122 511.96 -122 515.92 -122 520 C-122.99 520 -123.98 520 -125 520 C-125 523.96 -125 527.92 -125 532 C-125.99 532 -126.98 532 -128 532 C-128 535.96 -128 539.92 -128 544 C-128.99 544 -129.98 544 -131 544 C-131 547.96 -131 551.92 -131 556 C-131.99 556 -132.98 556 -134 556 C-134 559.96 -134 563.92 -134 568 C-134.99 568 -135.98 568 -137 568 C-137 571.96 -137 575.92 -137 580 C-137.99 580 -138.98 580 -140 580 C-140 583.96 -140 587.92 -140 592 C-140.99 592 -141.98 592 -143 592 C-143 595.96 -143 599.92 -143 604 C-143.99 604 -144.98 604 -146 604 C-146 607.96 -146 611.92 -146 616 C-146.99 616 -147.98 616 -149 616 C-149 619.96 -149 623.92 -149 628 C-149.99 628 -150.98 628 -152 628 C-152 631.96 -152 635.92 -152 640 C-152.99 640 -153.98 640 -155 640 C-155 643.96 -155 647.92 -155 652 C-155.99 652 -156.98 652 -158 652 C-158 655.96 -158 659.92 -158 664 C-158.99 664 -159.98 664 -161 664 C-161 667.96 -161 671.92 -161 676 C-161.99 676 -162.98 676 -164 676 C-164 679.96 -164 683.92 -164 688 C-164.99 688 -165.98 688 -167 688 C-167 692.95 -167 697.9 -167 703 C-167.99 703 -168.98 703 -170 703 C-170 706.96 -170 710.92 -170 715 C-170.99 715 -171.98 715 -173 715 C-173 718.96 -173 722.92 -173 727 C-173.99 727 -174.98 727 -176 727 C-176 729.97 -176 732.94 -176 736 C-176.99 736 -177.98 736 -179 736 C-179 736.99 -179 737.98 -179 739 C-182.96 739 -186.92 739 -191 739 C-191 738.01 -191 737.02 -191 736 C-193.97 736 -196.94 736 -200 736 C-200 735.01 -200 734.02 -200 733 C-202.97 733 -205.94 733 -209 733 C-209 732.01 -209 731.02 -209 730 C-212.96 730 -216.92 730 -221 730 C-221 729.01 -221 728.02 -221 727 C-223.97 727 -226.94 727 -230 727 C-230 726.01 -230 725.02 -230 724 C-232.97 724 -235.94 724 -239 724 C-239 723.01 -239 722.02 -239 721 C-241.97 721 -244.94 721 -248 721 C-248 720.01 -248 719.02 -248 718 C-250.97 718 -253.94 718 -257 718 C-257 717.01 -257 716.02 -257 715 C-260.96 715 -264.92 715 -269 715 C-269 714.01 -269 713.02 -269 712 C-271.97 712 -274.94 712 -278 712 C-278 711.01 -278 710.02 -278 709 C-280.97 709 -283.94 709 -287 709 C-287 708.01 -287 707.02 -287 706 C-289.97 706 -292.94 706 -296 706 C-296 705.01 -296 704.02 -296 703 C-298.97 703 -301.94 703 -305 703 C-305 702.01 -305 701.02 -305 700 C-307.97 700 -310.94 700 -314 700 C-314 699.01 -314 698.02 -314 697 C-316.97 697 -319.94 697 -323 697 C-323 696.01 -323 695.02 -323 694 C-326.96 694 -330.92 694 -335 694 C-335 693.01 -335 692.02 -335 691 C-337.97 691 -340.94 691 -344 691 C-344 690.01 -344 689.02 -344 688 C-346.97 688 -349.94 688 -353 688 C-353 687.01 -353 686.02 -353 685 C-355.97 685 -358.94 685 -362 685 C-362 684.01 -362 683.02 -362 682 C-364.97 682 -367.94 682 -371 682 C-371 681.01 -371 680.02 -371 679 C-373.97 679 -376.94 679 -380 679 C-380 678.01 -380 677.02 -380 676 C-382.97 676 -385.94 676 -389 676 C-389 675.01 -389 674.02 -389 673 C-391.97 673 -394.94 673 -398 673 C-398 672.01 -398 671.02 -398 670 C-400.97 670 -403.94 670 -407 670 C-407 669.01 -407 668.02 -407 667 C-409.97 667 -412.94 667 -416 667 C-416 666.01 -416 665.02 -416 664 C-417.98 664 -419.96 664 -422 664 C-422 665.98 -422 667.96 -422 670 C-422.99 670 -423.98 670 -425 670 C-425 670.99 -425 671.98 -425 673 C-425.99 673 -426.98 673 -428 673 C-428 673.99 -428 674.98 -428 676 C-428.99 676 -429.98 676 -431 676 C-431 676.99 -431 677.98 -431 679 C-431.99 679 -432.98 679 -434 679 C-434 680.98 -434 682.96 -434 685 C-434.99 685 -435.98 685 -437 685 C-437 685.99 -437 686.98 -437 688 C-437.99 688 -438.98 688 -440 688 C-440 688.99 -440 689.98 -440 691 C-440.99 691 -441.98 691 -443 691 C-443 691.99 -443 692.98 -443 694 C-443.99 694 -444.98 694 -446 694 C-446 695.98 -446 697.96 -446 700 C-446.99 700 -447.98 700 -449 700 C-449 700.99 -449 701.98 -449 703 C-449.99 703 -450.98 703 -452 703 C-452 703.99 -452 704.98 -452 706 C-452.99 706 -453.98 706 -455 706 C-455 706.99 -455 707.98 -455 709 C-455.99 709 -456.98 709 -458 709 C-458 710.98 -458 712.96 -458 715 C-458.99 715 -459.98 715 -461 715 C-461 715.99 -461 716.98 -461 718 C-461.99 718 -462.98 718 -464 718 C-464 718.99 -464 719.98 -464 721 C-464.99 721 -465.98 721 -467 721 C-467 721.99 -467 722.98 -467 724 C-467.99 724 -468.98 724 -470 724 C-470 724.99 -470 725.98 -470 727 C-470.99 727 -471.98 727 -473 727 C-473 728.98 -473 730.96 -473 733 C-473.99 733 -474.98 733 -476 733 C-476 733.99 -476 734.98 -476 736 C-476.99 736 -477.98 736 -479 736 C-479 736.99 -479 737.98 -479 739 C-479.99 739 -480.98 739 -482 739 C-482 739.99 -482 740.98 -482 742 C-482.99 742 -483.98 742 -485 742 C-485 743.98 -485 745.96 -485 748 C-485.99 748 -486.98 748 -488 748 C-488 748.99 -488 749.98 -488 751 C-488.99 751 -489.98 751 -491 751 C-491 751.99 -491 752.98 -491 754 C-491.99 754 -492.98 754 -494 754 C-494 754.99 -494 755.98 -494 757 C-494.99 757 -495.98 757 -497 757 C-497 758.98 -497 760.96 -497 763 C-497.99 763 -498.98 763 -500 763 C-500 763.99 -500 764.98 -500 766 C-500.99 766 -501.98 766 -503 766 C-503 766.99 -503 767.98 -503 769 C-503.99 769 -504.98 769 -506 769 C-506 769.99 -506 770.98 -506 772 C-506.99 772 -507.98 772 -509 772 C-509 773.98 -509 775.96 -509 778 C-509.99 778 -510.98 778 -512 778 C-512 778.99 -512 779.98 -512 781 C-512.99 781 -513.98 781 -515 781 C-515 781.99 -515 782.98 -515 784 C-515.99 784 -516.98 784 -518 784 C-518 784.99 -518 785.98 -518 787 C-518.99 787 -519.98 787 -521 787 C-521 787.99 -521 788.98 -521 790 C-521.99 790 -522.98 790 -524 790 C-524 791.98 -524 793.96 -524 796 C-524.99 796 -525.98 796 -527 796 C-527 796.99 -527 797.98 -527 799 C-527.99 799 -528.98 799 -530 799 C-530 799.99 -530 800.98 -530 802 C-530.99 802 -531.98 802 -533 802 C-533 802.99 -533 803.98 -533 805 C-533.99 805 -534.98 805 -536 805 C-536 805.99 -536 806.98 -536 808 C-536.99 808 -537.98 808 -539 808 C-539 746.62 -539 685.24 -539 622 C-538.01 622 -537.02 622 -536 622 C-536 621.01 -536 620.02 -536 619 C-535.01 619 -534.02 619 -533 619 C-533 618.01 -533 617.02 -533 616 C-532.01 616 -531.02 616 -530 616 C-530 614.02 -530 612.04 -530 610 C-529.01 610 -528.02 610 -527 610 C-527 609.01 -527 608.02 -527 607 C-526.01 607 -525.02 607 -524 607 C-524 606.01 -524 605.02 -524 604 C-523.01 604 -522.02 604 -521 604 C-521 603.01 -521 602.02 -521 601 C-520.01 601 -519.02 601 -518 601 C-518 600.01 -518 599.02 -518 598 C-517.01 598 -516.02 598 -515 598 C-515 597.01 -515 596.02 -515 595 C-514.01 595 -513.02 595 -512 595 C-512 594.01 -512 593.02 -512 592 C-511.01 592 -510.02 592 -509 592 C-509 590.02 -509 588.04 -509 586 C-508.01 586 -507.02 586 -506 586 C-506 585.01 -506 584.02 -506 583 C-505.01 583 -504.02 583 -503 583 C-503 582.01 -503 581.02 -503 580 C-502.01 580 -501.02 580 -500 580 C-500 579.01 -500 578.02 -500 577 C-499.01 577 -498.02 577 -497 577 C-497 576.01 -497 575.02 -497 574 C-496.01 574 -495.02 574 -494 574 C-494 573.01 -494 572.02 -494 571 C-493.01 571 -492.02 571 -491 571 C-491 570.01 -491 569.02 -491 568 C-490.01 568 -489.02 568 -488 568 C-488 566.02 -488 564.04 -488 562 C-487.01 562 -486.02 562 -485 562 C-485 561.01 -485 560.02 -485 559 C-484.01 559 -483.02 559 -482 559 C-482 558.01 -482 557.02 -482 556 C-481.01 556 -480.02 556 -479 556 C-479 555.01 -479 554.02 -479 553 C-478.01 553 -477.02 553 -476 553 C-476 552.01 -476 551.02 -476 550 C-475.01 550 -474.02 550 -473 550 C-473 549.01 -473 548.02 -473 547 C-472.01 547 -471.02 547 -470 547 C-470 546.01 -470 545.02 -470 544 C-469.01 544 -468.02 544 -467 544 C-467 542.02 -467 540.04 -467 538 C-466.01 538 -465.02 538 -464 538 C-464 537.01 -464 536.02 -464 535 C-463.01 535 -462.02 535 -461 535 C-461 534.01 -461 533.02 -461 532 C-460.01 532 -459.02 532 -458 532 C-458 531.01 -458 530.02 -458 529 C-457.01 529 -456.02 529 -455 529 C-455 528.01 -455 527.02 -455 526 C-454.01 526 -453.02 526 -452 526 C-452 525.01 -452 524.02 -452 523 C-451.01 523 -450.02 523 -449 523 C-449 522.01 -449 521.02 -449 520 C-448.01 520 -447.02 520 -446 520 C-446 518.02 -446 516.04 -446 514 C-445.01 514 -444.02 514 -443 514 C-443 513.01 -443 512.02 -443 511 C-442.01 511 -441.02 511 -440 511 C-440 510.01 -440 509.02 -440 508 C-439.01 508 -438.02 508 -437 508 C-437 507.01 -437 506.02 -437 505 C-436.01 505 -435.02 505 -434 505 C-434 504.01 -434 503.02 -434 502 C-433.01 502 -432.02 502 -431 502 C-431 501.01 -431 500.02 -431 499 C-430.01 499 -429.02 499 -428 499 C-428 498.01 -428 497.02 -428 496 C-427.01 496 -426.02 496 -425 496 C-425 494.02 -425 492.04 -425 490 C-424.01 490 -423.02 490 -422 490 C-422 489.01 -422 488.02 -422 487 C-421.01 487 -420.02 487 -419 487 C-419 486.01 -419 485.02 -419 484 C-418.01 484 -417.02 484 -416 484 C-416 483.01 -416 482.02 -416 481 C-415.01 481 -414.02 481 -413 481 C-413 480.01 -413 479.02 -413 478 C-412.01 478 -411.02 478 -410 478 C-410 477.01 -410 476.02 -410 475 C-409.01 475 -408.02 475 -407 475 C-407 474.01 -407 473.02 -407 472 C-406.01 472 -405.02 472 -404 472 C-404 470.02 -404 468.04 -404 466 C-403.01 466 -402.02 466 -401 466 C-401 465.01 -401 464.02 -401 463 C-400.01 463 -399.02 463 -398 463 C-398 462.01 -398 461.02 -398 460 C-397.01 460 -396.02 460 -395 460 C-395 459.01 -395 458.02 -395 457 C-394.01 457 -393.02 457 -392 457 C-392 456.01 -392 455.02 -392 454 C-391.01 454 -390.02 454 -389 454 C-389 453.01 -389 452.02 -389 451 C-388.01 451 -387.02 451 -386 451 C-386 450.01 -386 449.02 -386 448 C-385.01 448 -384.02 448 -383 448 C-383 446.02 -383 444.04 -383 442 C-382.01 442 -381.02 442 -380 442 C-380 441.01 -380 440.02 -380 439 C-379.01 439 -378.02 439 -377 439 C-377 438.01 -377 437.02 -377 436 C-376.01 436 -375.02 436 -374 436 C-374 435.01 -374 434.02 -374 433 C-373.01 433 -372.02 433 -371 433 C-371 432.01 -371 431.02 -371 430 C-370.01 430 -369.02 430 -368 430 C-368 429.01 -368 428.02 -368 427 C-367.01 427 -366.02 427 -365 427 C-365 426.01 -365 425.02 -365 424 C-364.01 424 -363.02 424 -362 424 C-362 422.02 -362 420.04 -362 418 C-361.01 418 -360.02 418 -359 418 C-359 417.01 -359 416.02 -359 415 C-358.01 415 -357.02 415 -356 415 C-356 414.01 -356 413.02 -356 412 C-355.01 412 -354.02 412 -353 412 C-353 411.01 -353 410.02 -353 409 C-352.01 409 -351.02 409 -350 409 C-350 408.01 -350 407.02 -350 406 C-349.01 406 -348.02 406 -347 406 C-347 405.01 -347 404.02 -347 403 C-346.01 403 -345.02 403 -344 403 C-344 402.01 -344 401.02 -344 400 C-343.01 400 -342.02 400 -341 400 C-341 398.02 -341 396.04 -341 394 C-340.01 394 -339.02 394 -338 394 C-338 393.01 -338 392.02 -338 391 C-337.01 391 -336.02 391 -335 391 C-335 390.01 -335 389.02 -335 388 C-334.01 388 -333.02 388 -332 388 C-332 387.01 -332 386.02 -332 385 C-331.01 385 -330.02 385 -329 385 C-329 384.01 -329 383.02 -329 382 C-328.01 382 -327.02 382 -326 382 C-326 381.01 -326 380.02 -326 379 C-325.01 379 -324.02 379 -323 379 C-323 378.01 -323 377.02 -323 376 C-322.01 376 -321.02 376 -320 376 C-320 374.02 -320 372.04 -320 370 C-319.01 370 -318.02 370 -317 370 C-317 369.01 -317 368.02 -317 367 C-316.01 367 -315.02 367 -314 367 C-314 366.01 -314 365.02 -314 364 C-313.01 364 -312.02 364 -311 364 C-311 363.01 -311 362.02 -311 361 C-310.01 361 -309.02 361 -308 361 C-308 360.01 -308 359.02 -308 358 C-307.01 358 -306.02 358 -305 358 C-305 357.01 -305 356.02 -305 355 C-304.01 355 -303.02 355 -302 355 C-302 353.02 -302 351.04 -302 349 C-301.01 349 -300.02 349 -299 349 C-299 348.01 -299 347.02 -299 346 C-298.01 346 -297.02 346 -296 346 C-296 345.01 -296 344.02 -296 343 C-295.01 343 -294.02 343 -293 343 C-293 342.01 -293 341.02 -293 340 C-292.01 340 -291.02 340 -290 340 C-290 339.01 -290 338.02 -290 337 C-289.01 337 -288.02 337 -287 337 C-287 336.01 -287 335.02 -287 334 C-286.01 334 -285.02 334 -284 334 C-284 333.01 -284 332.02 -284 331 C-283.01 331 -282.02 331 -281 331 C-281 329.02 -281 327.04 -281 325 C-280.01 325 -279.02 325 -278 325 C-278 324.01 -278 323.02 -278 322 C-277.01 322 -276.02 322 -275 322 C-275 321.01 -275 320.02 -275 319 C-274.01 319 -273.02 319 -272 319 C-272 318.01 -272 317.02 -272 316 C-271.01 316 -270.02 316 -269 316 C-269 315.01 -269 314.02 -269 313 C-268.01 313 -267.02 313 -266 313 C-266 312.01 -266 311.02 -266 310 C-265.01 310 -264.02 310 -263 310 C-263 309.01 -263 308.02 -263 307 C-262.01 307 -261.02 307 -260 307 C-260 305.02 -260 303.04 -260 301 C-259.01 301 -258.02 301 -257 301 C-257 300.01 -257 299.02 -257 298 C-256.01 298 -255.02 298 -254 298 C-254 297.01 -254 296.02 -254 295 C-253.01 295 -252.02 295 -251 295 C-251 294.01 -251 293.02 -251 292 C-250.01 292 -249.02 292 -248 292 C-248 291.01 -248 290.02 -248 289 C-247.01 289 -246.02 289 -245 289 C-245 288.01 -245 287.02 -245 286 C-244.01 286 -243.02 286 -242 286 C-242 285.01 -242 284.02 -242 283 C-241.01 283 -240.02 283 -239 283 C-239 282.01 -239 281.02 -239 280 C-238.01 280 -237.02 280 -236 280 C-236 278.02 -236 276.04 -236 274 C-235.01 274 -234.02 274 -233 274 C-233 273.01 -233 272.02 -233 271 C-232.01 271 -231.02 271 -230 271 C-230 270.01 -230 269.02 -230 268 C-229.01 268 -228.02 268 -227 268 C-227 267.01 -227 266.02 -227 265 C-226.01 265 -225.02 265 -224 265 C-224 264.01 -224 263.02 -224 262 C-223.01 262 -222.02 262 -221 262 C-221 261.01 -221 260.02 -221 259 C-220.01 259 -219.02 259 -218 259 C-218 258.01 -218 257.02 -218 256 C-217.01 256 -216.02 256 -215 256 C-215 254.02 -215 252.04 -215 250 C-214.01 250 -213.02 250 -212 250 C-212 249.01 -212 248.02 -212 247 C-211.01 247 -210.02 247 -209 247 C-209 246.01 -209 245.02 -209 244 C-208.01 244 -207.02 244 -206 244 C-206 243.01 -206 242.02 -206 241 C-205.01 241 -204.02 241 -203 241 C-203 240.01 -203 239.02 -203 238 C-202.01 238 -201.02 238 -200 238 C-200 237.01 -200 236.02 -200 235 C-199.01 235 -198.02 235 -197 235 C-197 234.01 -197 233.02 -197 232 C-196.01 232 -195.02 232 -194 232 C-194 230.02 -194 228.04 -194 226 C-193.01 226 -192.02 226 -191 226 C-191 225.01 -191 224.02 -191 223 C-190.01 223 -189.02 223 -188 223 C-188 222.01 -188 221.02 -188 220 C-187.01 220 -186.02 220 -185 220 C-185 219.01 -185 218.02 -185 217 C-184.01 217 -183.02 217 -182 217 C-182 216.01 -182 215.02 -182 214 C-181.01 214 -180.02 214 -179 214 C-179 213.01 -179 212.02 -179 211 C-178.01 211 -177.02 211 -176 211 C-176 210.01 -176 209.02 -176 208 C-177.98 208 -179.96 208 -182 208 C-182 208.99 -182 209.98 -182 211 C-182.99 211 -183.98 211 -185 211 C-185 211.99 -185 212.98 -185 214 C-185.99 214 -186.98 214 -188 214 C-188 214.99 -188 215.98 -188 217 C-188.99 217 -189.98 217 -191 217 C-191 217.99 -191 218.98 -191 220 C-191.99 220 -192.98 220 -194 220 C-194 220.99 -194 221.98 -194 223 C-194.99 223 -195.98 223 -197 223 C-197 223.99 -197 224.98 -197 226 C-197.99 226 -198.98 226 -200 226 C-200 226.99 -200 227.98 -200 229 C-201.98 229 -203.96 229 -206 229 C-206 229.99 -206 230.98 -206 232 C-206.99 232 -207.98 232 -209 232 C-209 232.99 -209 233.98 -209 235 C-209.99 235 -210.98 235 -212 235 C-212 235.99 -212 236.98 -212 238 C-212.99 238 -213.98 238 -215 238 C-215 238.99 -215 239.98 -215 241 C-215.99 241 -216.98 241 -218 241 C-218 241.99 -218 242.98 -218 244 C-218.99 244 -219.98 244 -221 244 C-221 244.99 -221 245.98 -221 247 C-222.98 247 -224.96 247 -227 247 C-227 247.99 -227 248.98 -227 250 C-227.99 250 -228.98 250 -230 250 C-230 250.99 -230 251.98 -230 253 C-230.99 253 -231.98 253 -233 253 C-233 253.99 -233 254.98 -233 256 C-233.99 256 -234.98 256 -236 256 C-236 256.99 -236 257.98 -236 259 C-236.99 259 -237.98 259 -239 259 C-239 259.99 -239 260.98 -239 262 C-239.99 262 -240.98 262 -242 262 C-242 262.99 -242 263.98 -242 265 C-243.98 265 -245.96 265 -248 265 C-248 265.99 -248 266.98 -248 268 C-248.99 268 -249.98 268 -251 268 C-251 268.99 -251 269.98 -251 271 C-251.99 271 -252.98 271 -254 271 C-254 271.99 -254 272.98 -254 274 C-254.99 274 -255.98 274 -257 274 C-257 274.99 -257 275.98 -257 277 C-257.99 277 -258.98 277 -260 277 C-260 277.99 -260 278.98 -260 280 C-260.99 280 -261.98 280 -263 280 C-263 280.99 -263 281.98 -263 283 C-263.99 283 -264.98 283 -266 283 C-266 283.99 -266 284.98 -266 286 C-267.98 286 -269.96 286 -272 286 C-272 286.99 -272 287.98 -272 289 C-272.99 289 -273.98 289 -275 289 C-275 289.99 -275 290.98 -275 292 C-275.99 292 -276.98 292 -278 292 C-278 292.99 -278 293.98 -278 295 C-278.99 295 -279.98 295 -281 295 C-281 295.99 -281 296.98 -281 298 C-281.99 298 -282.98 298 -284 298 C-284 298.99 -284 299.98 -284 301 C-284.99 301 -285.98 301 -287 301 C-287 301.99 -287 302.98 -287 304 C-287.99 304 -288.98 304 -290 304 C-290 304.99 -290 305.98 -290 307 C-291.98 307 -293.96 307 -296 307 C-296 307.99 -296 308.98 -296 310 C-296.99 310 -297.98 310 -299 310 C-299 310.99 -299 311.98 -299 313 C-299.99 313 -300.98 313 -302 313 C-302 313.99 -302 314.98 -302 316 C-302.99 316 -303.98 316 -305 316 C-305 316.99 -305 317.98 -305 319 C-305.99 319 -306.98 319 -308 319 C-308 319.99 -308 320.98 -308 322 C-308.99 322 -309.98 322 -311 322 C-311 322.99 -311 323.98 -311 325 C-312.98 325 -314.96 325 -317 325 C-317 325.99 -317 326.98 -317 328 C-317.99 328 -318.98 328 -320 328 C-320 328.99 -320 329.98 -320 331 C-320.99 331 -321.98 331 -323 331 C-323 331.99 -323 332.98 -323 334 C-323.99 334 -324.98 334 -326 334 C-326 334.99 -326 335.98 -326 337 C-326.99 337 -327.98 337 -329 337 C-329 337.99 -329 338.98 -329 340 C-329.99 340 -330.98 340 -332 340 C-332 340.99 -332 341.98 -332 343 C-332.99 343 -333.98 343 -335 343 C-335 343.99 -335 344.98 -335 346 C-336.11375 346.0928125 -336.11375 346.0928125 -337.25 346.1875 C-340.87017367 347.25709677 -341.77383898 349.00859613 -344 352 C-345.65533995 353.34736973 -347.32012773 354.68334336 -349 356 C-349.33 356.66 -349.66 357.32 -350 358 C-350.99 358 -351.98 358 -353 358 C-353 358.99 -353 359.98 -353 361 C-353.99 361 -354.98 361 -356 361 C-356 361.99 -356 362.98 -356 364 C-356.99 364 -357.98 364 -359 364 C-359 364.99 -359 365.98 -359 367 C-359.928125 367.433125 -360.85625 367.86625 -361.8125 368.3125 C-366.76975453 371.10915887 -370.45128716 375.27584105 -374.3515625 379.34375 C-376.78650796 381.78587819 -379.30492583 383.85754356 -382 386 C-383.678538 387.65471017 -385.34490253 389.32184389 -387 391 C-388.78240472 392.65585937 -390.57471089 394.30110276 -392.375 395.9375 C-397.11458179 400.25870761 -401.81688071 404.61768636 -406.5 409 C-410.9576535 413.17000848 -415.42998907 417.32141472 -419.9375 421.4375 C-424.66093327 425.75406957 -429.33719084 430.11805652 -434 434.5 C-439.65727598 439.81586564 -445.34669323 445.09238463 -451.078125 450.328125 C-454.20643985 453.18877655 -457.3236772 456.0610975 -460.4375 458.9375 C-460.97785889 459.43660889 -461.51821777 459.93571777 -462.07495117 460.44995117 C-463.16964892 461.46120612 -464.26429396 462.47251812 -465.35888672 463.48388672 C-467.53073549 465.49031053 -469.70341635 467.49583182 -471.8762207 469.5012207 C-472.96212034 470.50352681 -474.04789433 471.50596907 -475.13354492 472.50854492 C-477.78981756 474.96137528 -480.44764698 477.41246488 -483.109375 479.859375 C-489.29874413 485.55367195 -495.44461392 491.29142057 -501.5625 497.0625 C-507.37200592 502.54209609 -513.21473951 507.97975543 -519.11328125 513.36328125 C-522.23101256 516.21100606 -525.33598152 519.07214711 -528.4375 521.9375 C-528.97793945 522.43668945 -529.51837891 522.93587891 -530.07519531 523.45019531 C-531.16981478 524.46136553 -532.26437843 525.47259617 -533.35888672 526.48388672 C-536.07177586 528.99014104 -538.78594859 531.49500446 -541.5 534 C-542.58333957 534.99999324 -543.66667291 535.99999324 -544.75 537 C-551.25 543 -551.25 543 -552.87402344 544.49902344 C-553.96071177 545.50217056 -555.04729982 546.50542632 -556.13378906 547.50878906 C-558.78999236 549.96152496 -561.44773166 552.41254272 -564.109375 554.859375 C-570.29874413 560.55367195 -576.44461392 566.29142057 -582.5625 572.0625 C-588.36531342 577.53578364 -594.20023369 582.96834502 -600.09375 588.34375 C-602.75673376 590.77765989 -605.40648411 593.22492407 -608.05224609 595.67749023 C-612.22069921 599.53843452 -616.39245606 603.39681504 -620.625 607.1875 C-621.21539063 607.71730469 -621.80578125 608.24710938 -622.4140625 608.79296875 C-627.23861667 612.4648585 -634.28224107 611.56530108 -640 611 C-647.37124377 609.83334035 -654.62241834 607.99102058 -661.87890625 606.26953125 C-664.04892299 605.76592629 -666.21924488 605.2636347 -668.3898468 604.76255798 C-673.02509164 603.68976822 -677.65817495 602.60824518 -682.28973389 601.51965332 C-689.67635283 599.78365862 -697.06749148 598.06748936 -704.45947266 596.35449219 C-713.29793893 594.3051358 -722.13544335 592.25173885 -730.97160339 590.19246101 C-750.1314053 585.7279502 -769.30809213 581.33954746 -788.49093628 576.97528076 C-796.72446738 575.10195798 -804.956781 573.22329639 -813.18920326 571.34510803 C-816.07534127 570.68669451 -818.96151833 570.02845244 -821.84770203 569.37023926 C-836.988454 565.91697192 -852.12779698 562.45755265 -867.26684153 558.99680984 C-872.2726523 557.85250647 -877.27850806 556.7084001 -882.28439331 555.56442261 C-882.99443288 555.40215891 -883.70447244 555.23989522 -884.43602836 555.07271445 C-887.30748569 554.41651114 -890.17894451 553.76031439 -893.05040812 553.10413861 C-900.79202534 551.33504996 -908.53356543 549.56562571 -916.27484131 547.79504395 C-931.38461061 544.33931852 -946.49572576 540.88959781 -961.60998535 537.45355225 C-965.61566031 536.54288817 -969.62083834 535.63011114 -973.62536621 534.7144165 C-993.08471443 530.26753715 -1012.55282763 526.27319806 -1032.25 523 C-1034.59128854 522.60370679 -1036.93243458 522.20657075 -1039.2734375 521.80859375 C-1044.84737553 520.86280368 -1050.42289599 519.92692943 -1056 519 C-1053.1507902 515.95821642 -1050.01720928 514.38926449 -1046.26953125 512.671875 C-1045.26740852 512.20373383 -1045.26740852 512.20373383 -1044.24504089 511.72613525 C-1042.82501809 511.06420616 -1041.40353281 510.4054068 -1039.98071289 509.74951172 C-1037.86236356 508.77298631 -1035.74819883 507.78789376 -1033.63476562 506.80078125 C-1027.51837307 503.9535985 -1021.39162952 501.14122453 -1015.18930054 498.48547363 C-1014.45007355 498.16542358 -1013.71084656 497.84537354 -1012.94921875 497.515625 C-1012.37041143 497.2653099 -1011.79160412 497.01499479 -1011.19525719 496.75709438 C-1006.54129359 494.72454665 -1001.98359893 492.54842675 -997.45263672 490.25610352 C-996.76354753 489.90952352 -996.07445833 489.56294352 -995.36448765 489.20586109 C-993.93776142 488.488254 -992.51139888 487.76992339 -991.08540154 487.05086899 C-987.88979351 485.44054823 -984.68969651 483.83921753 -981.48999023 482.23706055 C-980.23145089 481.60623564 -978.97294197 480.97535004 -977.71446228 480.34440613 C-972.83091868 477.89640305 -967.94629282 475.45056174 -963.06158352 473.00488567 C-959.3919987 471.16749569 -955.72279261 469.32935767 -952.05444336 467.48950195 C-924.20808387 453.52438202 -924.20808387 453.52438202 -912.03515625 447.76953125 C-901.34227478 442.70843158 -890.76460073 437.42244023 -880.1875 432.125 C-879.29466372 431.67786463 -878.40182743 431.23072926 -877.4819355 430.77004433 C-870.98653714 427.51619217 -864.49307964 424.25847614 -858 421 C-850.60543858 417.28912576 -843.21011853 413.57977684 -835.8125 409.875 C-834.92101257 409.42849594 -834.02952515 408.98199188 -833.11102295 408.5219574 C-822.52057964 403.22086091 -811.90758563 397.98361617 -801.20043945 392.92126465 C-793.41431228 389.22929731 -785.70338129 385.3918803 -778 381.53125 C-777.34810699 381.20458344 -776.69621399 380.87791687 -776.02456665 380.54135132 C-771.3482675 378.19710652 -766.67392917 375.84896567 -762 373.5 C-756.66797795 370.82029813 -751.33515071 368.14221841 -746 365.46875 C-745.01720566 364.97621231 -745.01720566 364.97621231 -744.01455688 364.47372437 C-736.11006106 360.51555049 -728.17969885 356.62247118 -720.1875 352.84375 C-709.44411814 347.75722956 -698.81508352 342.44785598 -688.1875 337.125 C-687.29488464 336.67797226 -686.40226929 336.23094452 -685.48260498 335.77037048 C-678.9869837 332.5164091 -672.4933015 329.25858748 -666 326 C-658.60543858 322.28912576 -651.21011901 318.57977587 -643.8125 314.875 C-642.9203479 314.4281636 -642.0281958 313.98132721 -641.10900879 313.52095032 C-630.56456752 308.24288558 -619.99778166 303.02871417 -609.33666992 297.98937988 C-601.2102183 294.13514368 -593.16572358 290.1228604 -585.125 286.09375 C-584.08123703 285.57078842 -584.08123703 285.57078842 -583.01638794 285.03726196 C-578.0094873 282.52770346 -573.00454265 280.01425673 -568 277.5 C-562.29296863 274.63281651 -556.58514319 271.76723203 -550.875 268.90625 C-550.17684174 268.55641052 -549.47868347 268.20657104 -548.7593689 267.84613037 C-540.52284645 263.72206516 -532.26493199 259.65698142 -523.9375 255.71875 C-513.57242817 250.81255269 -503.31521568 245.69804508 -493.0625 240.5625 C-492.21365234 240.13735611 -491.36480469 239.71221222 -490.49023438 239.27418518 C-484.32539997 236.18562495 -478.16250769 233.09319941 -472 230 C-464.98044399 226.4766151 -457.96012301 222.95476867 -450.9375 219.4375 C-450.08897461 219.01247696 -449.24044922 218.58745392 -448.36621094 218.14955139 C-438.10338329 213.01216192 -427.81423962 207.94722344 -417.4387207 203.04040527 C-409.278884 199.16783256 -401.19971776 195.13990284 -393.125 191.09375 C-392.08150894 190.57092438 -392.08150894 190.57092438 -391.01693726 190.03753662 C-386.00985353 187.52788653 -381.00472558 185.01434863 -376 182.5 C-370.29296863 179.63281651 -364.5851438 176.7672308 -358.875 173.90625 C-358.17617706 173.55607819 -357.47735413 173.20590637 -356.75735474 172.84512329 C-348.56310399 168.74223025 -340.34795644 164.69765063 -332.0625 160.78125 C-321.36025166 155.71666132 -310.77345121 150.42699758 -300.1875 145.125 C-298.84830505 144.45432243 -298.84830505 144.45432243 -297.48205566 143.77009583 C-290.98661748 140.51622602 -284.49311852 137.25849566 -278 134 C-270.60543858 130.28912576 -263.21011901 126.57977587 -255.8125 122.875 C-254.9203479 122.4281636 -254.0281958 121.98132721 -253.10900879 121.52095032 C-242.56456752 116.24288558 -231.99778166 111.02871417 -221.33666992 105.98937988 C-213.2102183 102.13514368 -205.16572358 98.1228604 -197.125 94.09375 C-196.42915802 93.74510895 -195.73331604 93.3964679 -195.01638794 93.03726196 C-190.0094873 90.52770346 -185.00454265 88.01425673 -180 85.5 C-174.29296863 82.63281651 -168.58514319 79.76723203 -162.875 76.90625 C-162.17684174 76.55641052 -161.47868347 76.20657104 -160.7593689 75.84613037 C-152.52284645 71.72206516 -144.26493199 67.65698142 -135.9375 63.71875 C-125.57242817 58.81255269 -115.31521568 53.69804508 -105.0625 48.5625 C-104.21365234 48.13735611 -103.36480469 47.71221222 -102.49023438 47.27418518 C-96.32539997 44.18562495 -90.16250769 41.09319941 -84 38 C-76.98044402 34.47661512 -69.96014497 30.95472477 -62.9375 27.4375 C-62.09709608 27.01656885 -61.25669216 26.5956377 -60.39082146 26.16195107 C-48.05800926 19.98882855 -35.67933449 13.93125809 -23.20509338 8.04801941 C-18.4658523 5.79559025 -13.76369908 3.46716706 -9.05859375 1.14453125 C-6 -0 -6 -0 0 0 Z " fill="#FEFEFE" transform="translate(1056,0)"/>
<path d="M0 0 C-0.33 4.29 -0.66 8.58 -1 13 C-2.98 13 -4.96 13 -7 13 C-7.33 14.32 -7.66 15.64 -8 17 C-9.65 17 -11.3 17 -13 17 C-13.33 17.99 -13.66 18.98 -14 20 C-15.65 20 -17.3 20 -19 20 C-19.33 20.99 -19.66 21.98 -20 23 C-21.65 23 -23.3 23 -25 23 C-25.33 23.99 -25.66 24.98 -26 26 C-27.65 26 -29.3 26 -31 26 C-31.33 26.99 -31.66 27.98 -32 29 C-32.66 29 -33.32 29 -34 29 C-34.33 29.99 -34.66 30.98 -35 32 C-36.65 32 -38.3 32 -40 32 C-40.33 32.99 -40.66 33.98 -41 35 C-42.65 35 -44.3 35 -46 35 C-46.33 35.99 -46.66 36.98 -47 38 C-48.65 38 -50.3 38 -52 38 C-52.33 38.99 -52.66 39.98 -53 41 C-54.65 41 -56.3 41 -58 41 C-58.33 41.99 -58.66 42.98 -59 44 C-60.65 44 -62.3 44 -64 44 C-64.33 44.99 -64.66 45.98 -65 47 C-66.65 47 -68.3 47 -70 47 C-70.33 47.99 -70.66 48.98 -71 50 C-72.65 50 -74.3 50 -76 50 C-76.33 50.99 -76.66 51.98 -77 53 C-78.65 53 -80.3 53 -82 53 C-82.33 53.99 -82.66 54.98 -83 56 C-84.65 56 -86.3 56 -88 56 C-88.33 56.99 -88.66 57.98 -89 59 C-90.65 59 -92.3 59 -94 59 C-94.33 59.99 -94.66 60.98 -95 62 C-96.65 62 -98.3 62 -100 62 C-100.33 62.99 -100.66 63.98 -101 65 C-102.65 65 -104.3 65 -106 65 C-106.33 65.99 -106.66 66.98 -107 68 C-108.65 68 -110.3 68 -112 68 C-112.33 68.99 -112.66 69.98 -113 71 C-113.66 71 -114.32 71 -115 71 C-115.33 71.99 -115.66 72.98 -116 74 C-117.65 74 -119.3 74 -121 74 C-121.33 74.99 -121.66 75.98 -122 77 C-123.65 77 -125.3 77 -127 77 C-127.33 77.99 -127.66 78.98 -128 80 C-129.65 80 -131.3 80 -133 80 C-133.33 80.99 -133.66 81.98 -134 83 C-135.65 83 -137.3 83 -139 83 C-139.33 83.99 -139.66 84.98 -140 86 C-141.65 86 -143.3 86 -145 86 C-145.33 86.99 -145.66 87.98 -146 89 C-147.65 89 -149.3 89 -151 89 C-151.33 89.99 -151.66 90.98 -152 92 C-153.65 92 -155.3 92 -157 92 C-157.33 92.99 -157.66 93.98 -158 95 C-159.65 95 -161.3 95 -163 95 C-163.33 95.99 -163.66 96.98 -164 98 C-165.65 98 -167.3 98 -169 98 C-169.33 98.99 -169.66 99.98 -170 101 C-171.65 101 -173.3 101 -175 101 C-175.33 101.99 -175.66 102.98 -176 104 C-177.65 104 -179.3 104 -181 104 C-181.33 104.99 -181.66 105.98 -182 107 C-183.65 107 -185.3 107 -187 107 C-187.33 107.99 -187.66 108.98 -188 110 C-189.65 110 -191.3 110 -193 110 C-193.33 110.99 -193.66 111.98 -194 113 C-195.65 113 -197.3 113 -199 113 C-199.33 113.99 -199.66 114.98 -200 116 C-200.66 116 -201.32 116 -202 116 C-202.33 116.99 -202.66 117.98 -203 119 C-204.65 119 -206.3 119 -208 119 C-208.33 119.99 -208.66 120.98 -209 122 C-210.65 122 -212.3 122 -214 122 C-214.33 122.99 -214.66 123.98 -215 125 C-216.65 125 -218.3 125 -220 125 C-220.33 125.99 -220.66 126.98 -221 128 C-222.65 128 -224.3 128 -226 128 C-226.33 128.99 -226.66 129.98 -227 131 C-228.65 131 -230.3 131 -232 131 C-232.33 131.99 -232.66 132.98 -233 134 C-234.65 134 -236.3 134 -238 134 C-238.33 134.99 -238.66 135.98 -239 137 C-240.65 137 -242.3 137 -244 137 C-244.33 137.99 -244.66 138.98 -245 140 C-246.65 140 -248.3 140 -250 140 C-250.33 140.99 -250.66 141.98 -251 143 C-252.65 143 -254.3 143 -256 143 C-256.33 143.99 -256.66 144.98 -257 146 C-258.65 146 -260.3 146 -262 146 C-262.33 146.99 -262.66 147.98 -263 149 C-264.65 149 -266.3 149 -268 149 C-268.33 149.99 -268.66 150.98 -269 152 C-269.66 152 -270.32 152 -271 152 C-271.33 152.99 -271.66 153.98 -272 155 C-273.65 155 -275.3 155 -277 155 C-277.33 155.99 -277.66 156.98 -278 158 C-279.65 158 -281.3 158 -283 158 C-283.33 158.99 -283.66 159.98 -284 161 C-285.65 161 -287.3 161 -289 161 C-289.33 161.99 -289.66 162.98 -290 164 C-291.65 164 -293.3 164 -295 164 C-295.33 164.99 -295.66 165.98 -296 167 C-297.65 167 -299.3 167 -301 167 C-301.33 167.99 -301.66 168.98 -302 170 C-303.65 170 -305.3 170 -307 170 C-307.33 170.99 -307.66 171.98 -308 173 C-309.65 173 -311.3 173 -313 173 C-313.33 173.99 -313.66 174.98 -314 176 C-315.65 176 -317.3 176 -319 176 C-319.33 176.99 -319.66 177.98 -320 179 C-321.65 179 -323.3 179 -325 179 C-325.33 179.99 -325.66 180.98 -326 182 C-327.65 182 -329.3 182 -331 182 C-331.33 182.99 -331.66 183.98 -332 185 C-333.65 185 -335.3 185 -337 185 C-337.33 185.99 -337.66 186.98 -338 188 C-339.65 188 -341.3 188 -343 188 C-343.33 188.99 -343.66 189.98 -344 191 C-345.65 191 -347.3 191 -349 191 C-349.33 191.99 -349.66 192.98 -350 194 C-351.65 194 -353.3 194 -355 194 C-355.33 194.99 -355.66 195.98 -356 197 C-357.65 197 -359.3 197 -361 197 C-361.33 197.99 -361.66 198.98 -362 200 C-362.66 200 -363.32 200 -364 200 C-364.33 200.99 -364.66 201.98 -365 203 C-366.65 203 -368.3 203 -370 203 C-370.33 203.99 -370.66 204.98 -371 206 C-372.65 206 -374.3 206 -376 206 C-376.33 206.99 -376.66 207.98 -377 209 C-378.65 209 -380.3 209 -382 209 C-382.33 209.99 -382.66 210.98 -383 212 C-384.65 212 -386.3 212 -388 212 C-388.33 212.99 -388.66 213.98 -389 215 C-390.65 215 -392.3 215 -394 215 C-394.33 215.99 -394.66 216.98 -395 218 C-396.65 218 -398.3 218 -400 218 C-400.33 218.99 -400.66 219.98 -401 221 C-402.65 221 -404.3 221 -406 221 C-406.33 221.99 -406.66 222.98 -407 224 C-408.65 224 -410.3 224 -412 224 C-412.33 224.99 -412.66 225.98 -413 227 C-414.65 227 -416.3 227 -418 227 C-418.33 227.99 -418.66 228.98 -419 230 C-420.65 230 -422.3 230 -424 230 C-424.33 230.99 -424.66 231.98 -425 233 C-426.65 233 -428.3 233 -430 233 C-430.33 233.99 -430.66 234.98 -431 236 C-432.65 236 -434.3 236 -436 236 C-436.33 236.99 -436.66 237.98 -437 239 C-437.66 239 -438.32 239 -439 239 C-439.33 239.99 -439.66 240.98 -440 242 C-441.65 242 -443.3 242 -445 242 C-445.33 242.99 -445.66 243.98 -446 245 C-447.65 245 -449.3 245 -451 245 C-451.33 245.99 -451.66 246.98 -452 248 C-453.65 248 -455.3 248 -457 248 C-457.33 248.99 -457.66 249.98 -458 251 C-459.65 251 -461.3 251 -463 251 C-463.33 251.99 -463.66 252.98 -464 254 C-465.65 254 -467.3 254 -469 254 C-469.33 254.99 -469.66 255.98 -470 257 C-471.65 257 -473.3 257 -475 257 C-475.33 257.99 -475.66 258.98 -476 260 C-477.65 260 -479.3 260 -481 260 C-481.33 260.99 -481.66 261.98 -482 263 C-483.65 263 -485.3 263 -487 263 C-487.33 263.99 -487.66 264.98 -488 266 C-489.65 266 -491.3 266 -493 266 C-493.33 266.99 -493.66 267.98 -494 269 C-495.65 269 -497.3 269 -499 269 C-499.33 269.99 -499.66 270.98 -500 272 C-501.65 272 -503.3 272 -505 272 C-505.33 272.99 -505.66 273.98 -506 275 C-507.65 275 -509.3 275 -511 275 C-511.33 275.99 -511.66 276.98 -512 278 C-513.65 278 -515.3 278 -517 278 C-517.33 278.99 -517.66 279.98 -518 281 C-519.65 281 -521.3 281 -523 281 C-523.33 281.99 -523.66 282.98 -524 284 C-525.65 284 -527.3 284 -529 284 C-529.33 284.99 -529.66 285.98 -530 287 C-531.65 287 -533.3 287 -535 287 C-535.33 287.99 -535.66 288.98 -536 290 C-536.66 290 -537.32 290 -538 290 C-538.33 290.99 -538.66 291.98 -539 293 C-540.65 293 -542.3 293 -544 293 C-544.33 293.99 -544.66 294.98 -545 296 C-546.65 296 -548.3 296 -550 296 C-550.33 296.99 -550.66 297.98 -551 299 C-552.65 299 -554.3 299 -556 299 C-556.33 299.99 -556.66 300.98 -557 302 C-558.65 302 -560.3 302 -562 302 C-562.33 302.99 -562.66 303.98 -563 305 C-564.65 305 -566.3 305 -568 305 C-568.33 305.99 -568.66 306.98 -569 308 C-570.65 308 -572.3 308 -574 308 C-574.33 308.99 -574.66 309.98 -575 311 C-576.65 311 -578.3 311 -580 311 C-580.33 311.99 -580.66 312.98 -581 314 C-582.65 314 -584.3 314 -586 314 C-586.33 314.99 -586.66 315.98 -587 317 C-588.65 317 -590.3 317 -592 317 C-592.33 317.99 -592.66 318.98 -593 320 C-594.65 320 -596.3 320 -598 320 C-598.33 320.99 -598.66 321.98 -599 323 C-599.66 323 -600.32 323 -601 323 C-601.33 323.99 -601.66 324.98 -602 326 C-603.65 326 -605.3 326 -607 326 C-607.33 326.99 -607.66 327.98 -608 329 C-609.65 329 -611.3 329 -613 329 C-613.33 329.99 -613.66 330.98 -614 332 C-615.65 332 -617.3 332 -619 332 C-619.33 332.99 -619.66 333.98 -620 335 C-621.65 335 -623.3 335 -625 335 C-625.33 335.99 -625.66 336.98 -626 338 C-627.65 338 -629.3 338 -631 338 C-631.33 338.99 -631.66 339.98 -632 341 C-633.65 341 -635.3 341 -637 341 C-637.33 341.99 -637.66 342.98 -638 344 C-639.65 344 -641.3 344 -643 344 C-643.33 344.99 -643.66 345.98 -644 347 C-645.65 347 -647.3 347 -649 347 C-649.33 347.99 -649.66 348.98 -650 350 C-651.65 350 -653.3 350 -655 350 C-655.33 350.99 -655.66 351.98 -656 353 C-657.65 353 -659.3 353 -661 353 C-661.33 353.99 -661.66 354.98 -662 356 C-663.65 356 -665.3 356 -667 356 C-667.33 356.99 -667.66 357.98 -668 359 C-669.65 359 -671.3 359 -673 359 C-673.33 359.99 -673.66 360.98 -674 362 C-675.65 362 -677.3 362 -679 362 C-679.33 362.99 -679.66 363.98 -680 365 C-680.66 365 -681.32 365 -682 365 C-682.33 365.99 -682.66 366.98 -683 368 C-684.65 368 -686.3 368 -688 368 C-688.33 368.99 -688.66 369.98 -689 371 C-690.65 371 -692.3 371 -694 371 C-694.33 371.99 -694.66 372.98 -695 374 C-696.65 374 -698.3 374 -700 374 C-700.33 374.99 -700.66 375.98 -701 377 C-702.65 377 -704.3 377 -706 377 C-706.33 377.99 -706.66 378.98 -707 380 C-708.65 380 -710.3 380 -712 380 C-712.33 380.99 -712.66 381.98 -713 383 C-714.65 383 -716.3 383 -718 383 C-718.33 383.99 -718.66 384.98 -719 386 C-720.65 386 -722.3 386 -724 386 C-724.33 386.99 -724.66 387.98 -725 389 C-726.65 389 -728.3 389 -730 389 C-730.33 389.99 -730.66 390.98 -731 392 C-732.65 392 -734.3 392 -736 392 C-736.33 392.99 -736.66 393.98 -737 395 C-738.65 395 -740.3 395 -742 395 C-742.33 395.99 -742.66 396.98 -743 398 C-744.65 398 -746.3 398 -748 398 C-748.33 398.99 -748.66 399.98 -749 401 C-750.65 401 -752.3 401 -754 401 C-754.33 401.99 -754.66 402.98 -755 404 C-756.65 404 -758.3 404 -760 404 C-760.33 404.99 -760.66 405.98 -761 407 C-762.65 407 -764.3 407 -766 407 C-766.33 407.99 -766.66 408.98 -767 410 C-767.66 410 -768.32 410 -769 410 C-769.33 410.99 -769.66 411.98 -770 413 C-771.65 413 -773.3 413 -775 413 C-775.33 413.99 -775.66 414.98 -776 416 C-777.65 416 -779.3 416 -781 416 C-781.33 416.99 -781.66 417.98 -782 419 C-783.65 419 -785.3 419 -787 419 C-787.33 419.99 -787.66 420.98 -788 422 C-789.65 422 -791.3 422 -793 422 C-793.33 422.99 -793.66 423.98 -794 425 C-795.65 425 -797.3 425 -799 425 C-799.33 425.99 -799.66 426.98 -800 428 C-801.65 428 -803.3 428 -805 428 C-805.33 428.99 -805.66 429.98 -806 431 C-807.65 431 -809.3 431 -811 431 C-811.33 431.99 -811.66 432.98 -812 434 C-813.65 434 -815.3 434 -817 434 C-817.33 434.99 -817.66 435.98 -818 437 C-819.65 437 -821.3 437 -823 437 C-823.33 437.99 -823.66 438.98 -824 440 C-825.65 440 -827.3 440 -829 440 C-829.33 440.99 -829.66 441.98 -830 443 C-831.65 443 -833.3 443 -835 443 C-835.33 443.99 -835.66 444.98 -836 446 C-836.66 446 -837.32 446 -838 446 C-838.33 446.99 -838.66 447.98 -839 449 C-840.65 449 -842.3 449 -844 449 C-844.33 449.99 -844.66 450.98 -845 452 C-846.65 452 -848.3 452 -850 452 C-850.33 452.99 -850.66 453.98 -851 455 C-852.65 455 -854.3 455 -856 455 C-856.33 455.99 -856.66 456.98 -857 458 C-858.65 458 -860.3 458 -862 458 C-862.33 458.99 -862.66 459.98 -863 461 C-864.65 461 -866.3 461 -868 461 C-868.33 461.99 -868.66 462.98 -869 464 C-870.65 464 -872.3 464 -874 464 C-874.33 464.99 -874.66 465.98 -875 467 C-876.65 467 -878.3 467 -880 467 C-880.33 467.99 -880.66 468.98 -881 470 C-882.65 470 -884.3 470 -886 470 C-886.33 470.99 -886.66 471.98 -887 473 C-888.65 473 -890.3 473 -892 473 C-892.33 473.99 -892.66 474.98 -893 476 C-894.65 476 -896.3 476 -898 476 C-898.33 476.99 -898.66 477.98 -899 479 C-900.65 479 -902.3 479 -904 479 C-904.33 479.99 -904.66 480.98 -905 482 C-906.65 482 -908.3 482 -910 482 C-910.33 482.99 -910.66 483.98 -911 485 C-912.65 485 -914.3 485 -916 485 C-916.33 485.99 -916.66 486.98 -917 488 C-918.65 488 -920.3 488 -922 488 C-922.33 488.99 -922.66 489.98 -923 491 C-924.65 491 -926.3 491 -928 491 C-928.33 491.99 -928.66 492.98 -929 494 C-930.65 494 -932.3 494 -934 494 C-934.33 494.99 -934.66 495.98 -935 497 C-936.65 497 -938.3 497 -940 497 C-940.33 497.99 -940.66 498.98 -941 500 C-941.99 500 -942.98 500 -944 500 C-944 501.32 -944 502.64 -944 504 C-942.68 504.33 -941.36 504.66 -940 505 C-940 505.66 -940 506.32 -940 507 C-936.37 507 -932.74 507 -929 507 C-928.505 508.485 -928.505 508.485 -928 510 C-925.36 510 -922.72 510 -920 510 C-919.67 510.99 -919.34 511.98 -919 513 C-915.37 513 -911.74 513 -908 513 C-907.67 513.99 -907.34 514.98 -907 516 C-904.36 516 -901.72 516 -899 516 C-898.67 516.99 -898.34 517.98 -898 519 C-894.37 519 -890.74 519 -887 519 C-886.67 519.99 -886.34 520.98 -886 522 C-883.36 522 -880.72 522 -878 522 C-877.67 522.99 -877.34 523.98 -877 525 C-874.36 525 -871.72 525 -869 525 C-868.67 525.99 -868.34 526.98 -868 528 C-864.37 528 -860.74 528 -857 528 C-856.67 528.99 -856.34 529.98 -856 531 C-853.36 531 -850.72 531 -848 531 C-847.67 531.99 -847.34 532.98 -847 534 C-844.36 534 -841.72 534 -839 534 C-838.67 534.99 -838.34 535.98 -838 537 C-834.37 537 -830.74 537 -827 537 C-826.67 537.99 -826.34 538.98 -826 540 C-823.36 540 -820.72 540 -818 540 C-817.67 540.99 -817.34 541.98 -817 543 C-814.36 543 -811.72 543 -809 543 C-808.67 543.99 -808.34 544.98 -808 546 C-805.36 546 -802.72 546 -800 546 C-799.67 546.99 -799.34 547.98 -799 549 C-795.37 549 -791.74 549 -788 549 C-787.67 549.99 -787.34 550.98 -787 552 C-784.36 552 -781.72 552 -779 552 C-778.67 552.99 -778.34 553.98 -778 555 C-775.36 555 -772.72 555 -770 555 C-769.67 555.99 -769.34 556.98 -769 558 C-765.37 558 -761.74 558 -758 558 C-757.67 558.99 -757.34 559.98 -757 561 C-754.36 561 -751.72 561 -749 561 C-748.67 561.99 -748.34 562.98 -748 564 C-745.36 564 -742.72 564 -740 564 C-739.67 564.99 -739.34 565.98 -739 567 C-735.37 567 -731.74 567 -728 567 C-727.67 567.99 -727.34 568.98 -727 570 C-724.36 570 -721.72 570 -719 570 C-718.67 570.99 -718.34 571.98 -718 573 C-715.36 573 -712.72 573 -710 573 C-709.67 573.99 -709.34 574.98 -709 576 C-706.36 576 -703.72 576 -701 576 C-700.67 576.99 -700.34 577.98 -700 579 C-696.37 579 -692.74 579 -689 579 C-688.67 579.99 -688.34 580.98 -688 582 C-685.36 582 -682.72 582 -680 582 C-679.67 582.99 -679.34 583.98 -679 585 C-676.36 585 -673.72 585 -671 585 C-670.67 585.99 -670.34 586.98 -670 588 C-666.37 588 -662.74 588 -659 588 C-658.67 588.99 -658.34 589.98 -658 591 C-655.36 591 -652.72 591 -650 591 C-649.67 591.99 -649.34 592.98 -649 594 C-646.36 594 -643.72 594 -641 594 C-640.67 594.99 -640.34 595.98 -640 597 C-635.71 597 -631.42 597 -627 597 C-627 596.34 -627 595.68 -627 595 C-625.68 595 -624.36 595 -623 595 C-623 594.01 -623 593.02 -623 592 C-622.01 592 -621.02 592 -620 592 C-620 591.01 -620 590.02 -620 589 C-619.01 589 -618.02 589 -617 589 C-617 588.01 -617 587.02 -617 586 C-615.02 586 -613.04 586 -611 586 C-611 585.01 -611 584.02 -611 583 C-610.01 583 -609.02 583 -608 583 C-608 582.01 -608 581.02 -608 580 C-607.01 580 -606.02 580 -605 580 C-605 579.01 -605 578.02 -605 577 C-604.01 577 -603.02 577 -602 577 C-602 576.01 -602 575.02 -602 574 C-601.01 574 -600.02 574 -599 574 C-599 573.01 -599 572.02 -599 571 C-598.01 571 -597.02 571 -596 571 C-596 570.01 -596 569.02 -596 568 C-595.01 568 -594.02 568 -593 568 C-593 567.01 -593 566.02 -593 565 C-591.02 565 -589.04 565 -587 565 C-587 564.01 -587 563.02 -587 562 C-586.01 562 -585.02 562 -584 562 C-584 561.01 -584 560.02 -584 559 C-583.01 559 -582.02 559 -581 559 C-581 558.01 -581 557.02 -581 556 C-580.01 556 -579.02 556 -578 556 C-578 555.01 -578 554.02 -578 553 C-577.01 553 -576.02 553 -575 553 C-575 552.01 -575 551.02 -575 550 C-574.01 550 -573.02 550 -572 550 C-572 549.01 -572 548.02 -572 547 C-570.02 547 -568.04 547 -566 547 C-566 546.01 -566 545.02 -566 544 C-565.01 544 -564.02 544 -563 544 C-563 543.01 -563 542.02 -563 541 C-562.01 541 -561.02 541 -560 541 C-560 540.01 -560 539.02 -560 538 C-559.01 538 -558.02 538 -557 538 C-557 537.01 -557 536.02 -557 535 C-556.01 535 -555.02 535 -554 535 C-554 534.01 -554 533.02 -554 532 C-553.01 532 -552.02 532 -551 532 C-551 531.01 -551 530.02 -551 529 C-550.01 529 -549.02 529 -548 529 C-548 528.01 -548 527.02 -548 526 C-546.02 526 -544.04 526 -542 526 C-542 525.01 -542 524.02 -542 523 C-541.01 523 -540.02 523 -539 523 C-539 522.01 -539 521.02 -539 520 C-538.01 520 -537.02 520 -536 520 C-536 519.01 -536 518.02 -536 517 C-535.01 517 -534.02 517 -533 517 C-533 516.01 -533 515.02 -533 514 C-532.01 514 -531.02 514 -530 514 C-530 513.01 -530 512.02 -530 511 C-529.01 511 -528.02 511 -527 511 C-527 510.01 -527 509.02 -527 508 C-525.02 508 -523.04 508 -521 508 C-521 507.01 -521 506.02 -521 505 C-520.01 505 -519.02 505 -518 505 C-518 504.01 -518 503.02 -518 502 C-517.01 502 -516.02 502 -515 502 C-515 501.01 -515 500.02 -515 499 C-514.01 499 -513.02 499 -512 499 C-512 498.01 -512 497.02 -512 496 C-511.01 496 -510.02 496 -509 496 C-509 495.01 -509 494.02 -509 493 C-508.01 493 -507.02 493 -506 493 C-506 492.01 -506 491.02 -506 490 C-505.01 490 -504.02 490 -503 490 C-503 489.01 -503 488.02 -503 487 C-501.02 487 -499.04 487 -497 487 C-497 486.01 -497 485.02 -497 484 C-496.01 484 -495.02 484 -494 484 C-494 483.01 -494 482.02 -494 481 C-493.01 481 -492.02 481 -491 481 C-491 480.01 -491 479.02 -491 478 C-490.01 478 -489.02 478 -488 478 C-488 477.01 -488 476.02 -488 475 C-487.01 475 -486.02 475 -485 475 C-485 474.01 -485 473.02 -485 472 C-484.01 472 -483.02 472 -482 472 C-482 471.01 -482 470.02 -482 469 C-481.01 469 -480.02 469 -479 469 C-479 468.01 -479 467.02 -479 466 C-478.01 466 -477.02 466 -476 466 C-476 465.01 -476 464.02 -476 463 C-474.02 463 -472.04 463 -470 463 C-470 462.01 -470 461.02 -470 460 C-469.01 460 -468.02 460 -467 460 C-467 459.01 -467 458.02 -467 457 C-466.01 457 -465.02 457 -464 457 C-464 456.01 -464 455.02 -464 454 C-463.01 454 -462.02 454 -461 454 C-461 453.01 -461 452.02 -461 451 C-460.01 451 -459.02 451 -458 451 C-458 450.01 -458 449.02 -458 448 C-457.01 448 -456.02 448 -455 448 C-455 447.01 -455 446.02 -455 445 C-453.02 445 -451.04 445 -449 445 C-449 444.01 -449 443.02 -449 442 C-448.01 442 -447.02 442 -446 442 C-446 441.01 -446 440.02 -446 439 C-445.01 439 -444.02 439 -443 439 C-443 438.01 -443 437.02 -443 436 C-442.01 436 -441.02 436 -440 436 C-440 435.01 -440 434.02 -440 433 C-439.01 433 -438.02 433 -437 433 C-437 432.01 -437 431.02 -437 430 C-436.01 430 -435.02 430 -434 430 C-434 429.01 -434 428.02 -434 427 C-432.02 427 -430.04 427 -428 427 C-428 426.01 -428 425.02 -428 424 C-427.01 424 -426.02 424 -425 424 C-425 423.01 -425 422.02 -425 421 C-424.01 421 -423.02 421 -422 421 C-422 420.01 -422 419.02 -422 418 C-421.01 418 -420.02 418 -419 418 C-419 417.01 -419 416.02 -419 415 C-418.01 415 -417.02 415 -416 415 C-416 414.01 -416 413.02 -416 412 C-415.01 412 -414.02 412 -413 412 C-413 410.68 -413 409.36 -413 408 C-411.35 408 -409.7 408 -408 408 C-407.67 407.01 -407.34 406.02 -407 405 C-406.34 405 -405.68 405 -405 405 C-405 404.34 -405 403.68 -405 403 C-403.68 403.33 -402.36 403.66 -401 404 C-401.71542969 404.65484375 -402.43085937 405.3096875 -403.16796875 405.984375 C-413.51470375 415.45891752 -423.83690263 424.95714974 -434.0625 434.5625 C-439.69929523 439.85706362 -445.36848025 445.11228736 -451.078125 450.328125 C-454.20643985 453.18877655 -457.3236772 456.0610975 -460.4375 458.9375 C-460.97785889 459.43660889 -461.51821777 459.93571777 -462.07495117 460.44995117 C-463.16964892 461.46120612 -464.26429396 462.47251812 -465.35888672 463.48388672 C-467.53073549 465.49031053 -469.70341635 467.49583182 -471.8762207 469.5012207 C-472.96212034 470.50352681 -474.04789433 471.50596907 -475.13354492 472.50854492 C-477.78981756 474.96137528 -480.44764698 477.41246488 -483.109375 479.859375 C-489.29874413 485.55367195 -495.44461392 491.29142057 -501.5625 497.0625 C-507.37200592 502.54209609 -513.21473951 507.97975543 -519.11328125 513.36328125 C-522.23101256 516.21100606 -525.33598152 519.07214711 -528.4375 521.9375 C-528.97793945 522.43668945 -529.51837891 522.93587891 -530.07519531 523.45019531 C-531.16981478 524.46136553 -532.26437843 525.47259617 -533.35888672 526.48388672 C-536.07177586 528.99014104 -538.78594859 531.49500446 -541.5 534 C-542.58333957 534.99999324 -543.66667291 535.99999324 -544.75 537 C-551.25 543 -551.25 543 -552.87402344 544.49902344 C-553.96071177 545.50217056 -555.04729982 546.50542632 -556.13378906 547.50878906 C-558.78999236 549.96152496 -561.44773166 552.41254272 -564.109375 554.859375 C-570.29874413 560.55367195 -576.44461392 566.29142057 -582.5625 572.0625 C-588.36531342 577.53578364 -594.20023369 582.96834502 -600.09375 588.34375 C-602.75673376 590.77765989 -605.40648411 593.22492407 -608.05224609 595.67749023 C-612.22069921 599.53843452 -616.39245606 603.39681504 -620.625 607.1875 C-621.21539063 607.71730469 -621.80578125 608.24710938 -622.4140625 608.79296875 C-627.23861667 612.4648585 -634.28224107 611.56530108 -640 611 C-647.37124377 609.83334035 -654.62241834 607.99102058 -661.87890625 606.26953125 C-664.04892299 605.76592629 -666.21924488 605.2636347 -668.3898468 604.76255798 C-673.02509164 603.68976822 -677.65817495 602.60824518 -682.28973389 601.51965332 C-689.67635283 599.78365862 -697.06749148 598.06748936 -704.45947266 596.35449219 C-713.29793893 594.3051358 -722.13544335 592.25173885 -730.97160339 590.19246101 C-750.1314053 585.7279502 -769.30809213 581.33954746 -788.49093628 576.97528076 C-796.72446738 575.10195798 -804.956781 573.22329639 -813.18920326 571.34510803 C-816.07534127 570.68669451 -818.96151833 570.02845244 -821.84770203 569.37023926 C-836.988454 565.91697192 -852.12779698 562.45755265 -867.26684153 558.99680984 C-872.2726523 557.85250647 -877.27850806 556.7084001 -882.28439331 555.56442261 C-882.99443288 555.40215891 -883.70447244 555.23989522 -884.43602836 555.07271445 C-887.30748569 554.41651114 -890.17894451 553.76031439 -893.05040812 553.10413861 C-900.79202534 551.33504996 -908.53356543 549.56562571 -916.27484131 547.79504395 C-931.38461061 544.33931852 -946.49572576 540.88959781 -961.60998535 537.45355225 C-965.61566031 536.54288817 -969.62083834 535.63011114 -973.62536621 534.7144165 C-993.08471443 530.26753715 -1012.55282763 526.27319806 -1032.25 523 C-1034.59128854 522.60370679 -1036.93243458 522.20657075 -1039.2734375 521.80859375 C-1044.84737553 520.86280368 -1050.42289599 519.92692943 -1056 519 C-1053.1507902 515.95821642 -1050.01720928 514.38926449 -1046.26953125 512.671875 C-1045.26740852 512.20373383 -1045.26740852 512.20373383 -1044.24504089 511.72613525 C-1042.82501809 511.06420616 -1041.40353281 510.4054068 -1039.98071289 509.74951172 C-1037.86236356 508.77298631 -1035.74819883 507.78789376 -1033.63476562 506.80078125 C-1027.51837307 503.9535985 -1021.39162952 501.14122453 -1015.18930054 498.48547363 C-1014.45007355 498.16542358 -1013.71084656 497.84537354 -1012.94921875 497.515625 C-1012.37041143 497.2653099 -1011.79160412 497.01499479 -1011.19525719 496.75709438 C-1006.54129359 494.72454665 -1001.98359893 492.54842675 -997.45263672 490.25610352 C-996.76354753 489.90952352 -996.07445833 489.56294352 -995.36448765 489.20586109 C-993.93776142 488.488254 -992.51139888 487.76992339 -991.08540154 487.05086899 C-987.88979351 485.44054823 -984.68969651 483.83921753 -981.48999023 482.23706055 C-980.23145089 481.60623564 -978.97294197 480.97535004 -977.71446228 480.34440613 C-972.83091868 477.89640305 -967.94629282 475.45056174 -963.06158352 473.00488567 C-959.3919987 471.16749569 -955.72279261 469.32935767 -952.05444336 467.48950195 C-924.20808387 453.52438202 -924.20808387 453.52438202 -912.03515625 447.76953125 C-901.34227478 442.70843158 -890.76460073 437.42244023 -880.1875 432.125 C-879.29466372 431.67786463 -878.40182743 431.23072926 -877.4819355 430.77004433 C-870.98653714 427.51619217 -864.49307964 424.25847614 -858 421 C-850.60543858 417.28912576 -843.21011853 413.57977684 -835.8125 409.875 C-834.92101257 409.42849594 -834.02952515 408.98199188 -833.11102295 408.5219574 C-822.52057964 403.22086091 -811.90758563 397.98361617 -801.20043945 392.92126465 C-793.41431228 389.22929731 -785.70338129 385.3918803 -778 381.53125 C-777.34810699 381.20458344 -776.69621399 380.87791687 -776.02456665 380.54135132 C-771.3482675 378.19710652 -766.67392917 375.84896567 -762 373.5 C-756.66797795 370.82029813 -751.33515071 368.14221841 -746 365.46875 C-745.01720566 364.97621231 -745.01720566 364.97621231 -744.01455688 364.47372437 C-736.11006106 360.51555049 -728.17969885 356.62247118 -720.1875 352.84375 C-709.44411814 347.75722956 -698.81508352 342.44785598 -688.1875 337.125 C-687.29488464 336.67797226 -686.40226929 336.23094452 -685.48260498 335.77037048 C-678.9869837 332.5164091 -672.4933015 329.25858748 -666 326 C-658.60543858 322.28912576 -651.21011901 318.57977587 -643.8125 314.875 C-642.9203479 314.4281636 -642.0281958 313.98132721 -641.10900879 313.52095032 C-630.56456752 308.24288558 -619.99778166 303.02871417 -609.33666992 297.98937988 C-601.2102183 294.13514368 -593.16572358 290.1228604 -585.125 286.09375 C-584.08123703 285.57078842 -584.08123703 285.57078842 -583.01638794 285.03726196 C-578.0094873 282.52770346 -573.00454265 280.01425673 -568 277.5 C-562.29296863 274.63281651 -556.58514319 271.76723203 -550.875 268.90625 C-550.17684174 268.55641052 -549.47868347 268.20657104 -548.7593689 267.84613037 C-540.52284645 263.72206516 -532.26493199 259.65698142 -523.9375 255.71875 C-513.57242817 250.81255269 -503.31521568 245.69804508 -493.0625 240.5625 C-492.21365234 240.13735611 -491.36480469 239.71221222 -490.49023438 239.27418518 C-484.32539997 236.18562495 -478.16250769 233.09319941 -472 230 C-464.98044399 226.4766151 -457.96012301 222.95476867 -450.9375 219.4375 C-450.08897461 219.01247696 -449.24044922 218.58745392 -448.36621094 218.14955139 C-438.10338329 213.01216192 -427.81423962 207.94722344 -417.4387207 203.04040527 C-409.278884 199.16783256 -401.19971776 195.13990284 -393.125 191.09375 C-392.08150894 190.57092438 -392.08150894 190.57092438 -391.01693726 190.03753662 C-386.00985353 187.52788653 -381.00472558 185.01434863 -376 182.5 C-370.29296863 179.63281651 -364.5851438 176.7672308 -358.875 173.90625 C-358.17617706 173.55607819 -357.47735413 173.20590637 -356.75735474 172.84512329 C-348.56310399 168.74223025 -340.34795644 164.69765063 -332.0625 160.78125 C-321.36025166 155.71666132 -310.77345121 150.42699758 -300.1875 145.125 C-298.84830505 144.45432243 -298.84830505 144.45432243 -297.48205566 143.77009583 C-290.98661748 140.51622602 -284.49311852 137.25849566 -278 134 C-270.60543858 130.28912576 -263.21011901 126.57977587 -255.8125 122.875 C-254.9203479 122.4281636 -254.0281958 121.98132721 -253.10900879 121.52095032 C-242.56456752 116.24288558 -231.99778166 111.02871417 -221.33666992 105.98937988 C-213.2102183 102.13514368 -205.16572358 98.1228604 -197.125 94.09375 C-196.42915802 93.74510895 -195.73331604 93.3964679 -195.01638794 93.03726196 C-190.0094873 90.52770346 -185.00454265 88.01425673 -180 85.5 C-174.29296863 82.63281651 -168.58514319 79.76723203 -162.875 76.90625 C-162.17684174 76.55641052 -161.47868347 76.20657104 -160.7593689 75.84613037 C-152.52284645 71.72206516 -144.26493199 67.65698142 -135.9375 63.71875 C-125.57242817 58.81255269 -115.31521568 53.69804508 -105.0625 48.5625 C-104.21365234 48.13735611 -103.36480469 47.71221222 -102.49023438 47.27418518 C-96.32539997 44.18562495 -90.16250769 41.09319941 -84 38 C-76.98044402 34.47661512 -69.96014497 30.95472477 -62.9375 27.4375 C-62.09709608 27.01656885 -61.25669216 26.5956377 -60.39082146 26.16195107 C-48.05800926 19.98882855 -35.67933449 13.93125809 -23.20509338 8.04801941 C-18.4658523 5.79559025 -13.76369908 3.46716706 -9.05859375 1.14453125 C-6 -0 -6 -0 0 0 Z " fill="#263358" transform="translate(1056,0)"/>
<path d="M0 0 C2.64 0 5.28 0 8 0 C8 3.96 8 7.92 8 12 C7.01 12 6.02 12 5 12 C5 15.96 5 19.92 5 24 C4.01 24 3.02 24 2 24 C2 27.3 2 30.6 2 34 C1.67 33.34 1.34 32.68 1 32 C-0.0415625 32.556875 -1.083125 33.11375 -2.15625 33.6875 C-9.43668826 37.56760178 -16.73138242 41.40192994 -24.125 45.0625 C-33.56632186 49.74185878 -42.85195704 54.69390208 -52.0625 59.8125 C-57.48224263 62.78851939 -63.02212485 65.50812298 -68.5625 68.25 C-75.54283366 71.70493042 -82.41571556 75.27741236 -89.1875 79.125 C-96.12594744 83.06714045 -103.2116085 86.53274581 -110.45117188 89.88500977 C-115.31909477 92.15458271 -119.90389331 94.62540269 -124.453125 97.48828125 C-127.69786708 99.41422479 -131.05517242 101.08335175 -134.4375 102.75 C-140.27440687 105.62718377 -146.0615012 108.57955819 -151.8125 111.625 C-159.7277999 115.81419042 -167.67110649 119.94706905 -175.625 124.0625 C-183.26295669 128.01725361 -190.89822158 131.97604364 -198.5 136 C-199.17820801 136.35900391 -199.85641602 136.71800781 -200.55517578 137.08789062 C-204.22711541 139.03863736 -207.8692531 141.03641356 -211.5 143.0625 C-216.80996405 145.98989212 -222.28838977 148.52813602 -227.8125 151.02172852 C-232.07914171 152.97777483 -236.00388783 155.19188815 -239.95239258 157.72583008 C-243.52899624 159.95145241 -247.26422556 161.87023817 -251 163.8125 C-251.8259668 164.24481934 -252.65193359 164.67713867 -253.50292969 165.12255859 C-259.37145474 168.18297751 -265.27990339 171.15701515 -271.2097168 174.09643555 C-280.08905621 178.51211307 -288.79890099 183.24459877 -297.5 188 C-307.49097199 193.46035397 -317.52030138 198.80035763 -327.72387695 203.85229492 C-333.98842203 206.96600192 -340.17139224 210.22775324 -346.35449219 213.49951172 C-350.21695041 215.54132246 -354.08110345 217.56786111 -358 219.5 C-363.33844238 222.13728179 -368.5910363 224.93379462 -373.85546875 227.71484375 C-381.0521326 231.51185658 -388.2736923 235.25976298 -395.5 239 C-407.89565758 245.41842435 -420.26282775 251.8882006 -432.58984375 258.4375 C-445.01566772 265.03720806 -445.01566772 265.03720806 -449.875 267.4375 C-455.34580175 270.14071969 -460.73168201 273.00177842 -466.12744141 275.85083008 C-472.65698324 279.29743314 -479.20108777 282.71536486 -485.75 286.125 C-492.24741511 289.50835511 -498.73310499 292.91025904 -505.1875 296.375 C-509.34452425 298.60565295 -513.52195123 300.78133073 -517.75 302.875 C-523.6314581 305.78831879 -529.43413731 308.84057686 -535.23730469 311.90576172 C-541.64755393 315.2911042 -548.07089095 318.65062342 -554.5 322 C-561.59016583 325.69543044 -568.6756366 329.39939967 -575.75 333.125 C-576.51320557 333.52686523 -577.27641113 333.92873047 -578.06274414 334.34277344 C-582.03695264 336.43637112 -586.00936748 338.53332733 -589.98046875 340.6328125 C-603.72617909 347.8936297 -603.72617909 347.8936297 -610 351 C-615.79850039 353.87118 -621.5173306 356.88455626 -627.23828125 359.90625 C-633.64817974 363.29147764 -640.0712137 366.65079156 -646.5 370 C-655.89730502 374.89792311 -665.28027197 379.82234339 -674.65429688 384.76464844 C-677.10689262 386.05629441 -679.56107496 387.34488451 -682.015625 388.6328125 C-689.42316906 392.52123217 -696.81757321 396.42473105 -704.15234375 400.44921875 C-713.99762114 405.81077584 -723.92412091 410.99712071 -733.96826172 415.97558594 C-743.60138515 420.76721598 -753.10597086 425.81832942 -762.5 431.0625 C-767.80996405 433.98989212 -773.28838977 436.52813602 -778.8125 439.02172852 C-783.09886436 440.9868167 -787.04774608 443.21117486 -791.01489258 445.75708008 C-794.25100625 447.78328285 -797.61780861 449.54468163 -801 451.3125 C-801.73347656 451.69857422 -802.46695313 452.08464844 -803.22265625 452.48242188 C-808.76829286 455.38841156 -814.35921349 458.19720599 -819.96972656 460.9753418 C-825.66375383 463.80483319 -831.27834189 466.77363397 -836.88842773 469.76538086 C-842.87380584 472.95120296 -848.91413931 476.00983723 -855 479 C-855 479.66 -855 480.32 -855 481 C-854.03404907 481.41173462 -854.03404907 481.41173462 -853.04858398 481.83178711 C-836.94849104 488.70016895 -820.88813808 495.65506458 -804.849823 502.66641235 C-794.42773035 507.22108068 -783.98775711 511.72351157 -773.5 516.125 C-766.00241838 519.27297528 -758.60968676 522.54035069 -751.265625 526.03125 C-743.48514176 529.66988395 -735.55603061 532.98829461 -727.66992188 536.39019775 C-727.00025391 536.67908875 -726.33058594 536.96797974 -725.640625 537.265625 C-724.61291992 537.70887115 -724.61291992 537.70887115 -723.56445312 538.16107178 C-718.1356681 540.50456995 -712.7149673 542.86627183 -707.296875 545.234375 C-706.47264038 545.59456726 -705.64840576 545.95475952 -704.79919434 546.3258667 C-703.12296034 547.05841919 -701.44673151 547.79098352 -699.77050781 548.52355957 C-686.66165466 554.25201666 -673.53230431 559.91755465 -660.33959961 565.45043945 C-653.61342224 568.2827748 -646.99983857 571.28668545 -640.41796875 574.4375 C-635.90435275 576.50086732 -631.30408634 578.31186939 -626.65551758 580.0480957 C-622.10555373 581.78889254 -622.10555373 581.78889254 -621 584 C-624.96 584 -628.92 584 -633 584 C-633.33 583.34 -633.66 582.68 -634 582 C-635.86492402 581.61004898 -635.86492402 581.61004898 -638 581.5 C-640.1875 581.34375 -640.1875 581.34375 -642 581 C-642.33 580.34 -642.66 579.68 -643 579 C-644.86492402 578.61004898 -644.86492402 578.61004898 -647 578.5 C-649.1875 578.34375 -649.1875 578.34375 -651 578 C-651.33 577.34 -651.66 576.68 -652 576 C-654.55491823 575.60786962 -654.55491823 575.60786962 -657.5 575.5 C-660.53125 575.34375 -660.53125 575.34375 -663 575 C-663.33 574.34 -663.66 573.68 -664 573 C-665.86492402 572.61004898 -665.86492402 572.61004898 -668 572.5 C-670.1875 572.34375 -670.1875 572.34375 -672 572 C-672.33 571.34 -672.66 570.68 -673 570 C-674.86492402 569.61004898 -674.86492402 569.61004898 -677 569.5 C-679.1875 569.34375 -679.1875 569.34375 -681 569 C-681.33 568.34 -681.66 567.68 -682 567 C-684.55491823 566.60786962 -684.55491823 566.60786962 -687.5 566.5 C-690.53125 566.34375 -690.53125 566.34375 -693 566 C-693.33 565.34 -693.66 564.68 -694 564 C-695.86492402 563.61004898 -695.86492402 563.61004898 -698 563.5 C-700.1875 563.34375 -700.1875 563.34375 -702 563 C-702.33 562.34 -702.66 561.68 -703 561 C-704.86492402 560.61004898 -704.86492402 560.61004898 -707 560.5 C-709.1875 560.34375 -709.1875 560.34375 -711 560 C-711.33 559.34 -711.66 558.68 -712 558 C-713.86492402 557.61004898 -713.86492402 557.61004898 -716 557.5 C-718.1875 557.34375 -718.1875 557.34375 -720 557 C-720.33 556.34 -720.66 555.68 -721 555 C-723.55491823 554.60786962 -723.55491823 554.60786962 -726.5 554.5 C-729.53125 554.34375 -729.53125 554.34375 -732 554 C-732.33 553.34 -732.66 552.68 -733 552 C-734.86492402 551.61004898 -734.86492402 551.61004898 -737 551.5 C-739.1875 551.34375 -739.1875 551.34375 -741 551 C-741.33 550.34 -741.66 549.68 -742 549 C-743.86492402 548.61004898 -743.86492402 548.61004898 -746 548.5 C-748.1875 548.34375 -748.1875 548.34375 -750 548 C-750.33 547.34 -750.66 546.68 -751 546 C-753.55491823 545.60786962 -753.55491823 545.60786962 -756.5 545.5 C-759.53125 545.34375 -759.53125 545.34375 -762 545 C-762.33 544.34 -762.66 543.68 -763 543 C-764.86492402 542.61004898 -764.86492402 542.61004898 -767 542.5 C-769.1875 542.34375 -769.1875 542.34375 -771 542 C-771.33 541.34 -771.66 540.68 -772 540 C-773.86492402 539.61004898 -773.86492402 539.61004898 -776 539.5 C-778.1875 539.34375 -778.1875 539.34375 -780 539 C-780.33 538.34 -780.66 537.68 -781 537 C-783.55491823 536.60786962 -783.55491823 536.60786962 -786.5 536.5 C-789.53125 536.34375 -789.53125 536.34375 -792 536 C-792.33 535.34 -792.66 534.68 -793 534 C-794.86492402 533.61004898 -794.86492402 533.61004898 -797 533.5 C-799.1875 533.34375 -799.1875 533.34375 -801 533 C-801.33 532.34 -801.66 531.68 -802 531 C-803.86492402 530.61004898 -803.86492402 530.61004898 -806 530.5 C-808.1875 530.34375 -808.1875 530.34375 -810 530 C-810.33 529.34 -810.66 528.68 -811 528 C-812.86492402 527.61004898 -812.86492402 527.61004898 -815 527.5 C-817.1875 527.34375 -817.1875 527.34375 -819 527 C-819.33 526.34 -819.66 525.68 -820 525 C-822.55491823 524.60786962 -822.55491823 524.60786962 -825.5 524.5 C-828.53125 524.34375 -828.53125 524.34375 -831 524 C-831.33 523.34 -831.66 522.68 -832 522 C-833.86492402 521.61004898 -833.86492402 521.61004898 -836 521.5 C-838.1875 521.34375 -838.1875 521.34375 -840 521 C-840.33 520.34 -840.66 519.68 -841 519 C-842.86492402 518.61004898 -842.86492402 518.61004898 -845 518.5 C-847.1875 518.34375 -847.1875 518.34375 -849 518 C-849.33 517.34 -849.66 516.68 -850 516 C-852.55491823 515.60786962 -852.55491823 515.60786962 -855.5 515.5 C-858.53125 515.34375 -858.53125 515.34375 -861 515 C-861.33 514.34 -861.66 513.68 -862 513 C-863.86492402 512.61004898 -863.86492402 512.61004898 -866 512.5 C-868.1875 512.34375 -868.1875 512.34375 -870 512 C-870.33 511.34 -870.66 510.68 -871 510 C-872.86492402 509.61004898 -872.86492402 509.61004898 -875 509.5 C-877.1875 509.34375 -877.1875 509.34375 -879 509 C-879.33 508.34 -879.66 507.68 -880 507 C-882.55491823 506.60786962 -882.55491823 506.60786962 -885.5 506.5 C-888.53125 506.34375 -888.53125 506.34375 -891 506 C-891.33 505.34 -891.66 504.68 -892 504 C-893.86492402 503.61004898 -893.86492402 503.61004898 -896 503.5 C-898.1875 503.34375 -898.1875 503.34375 -900 503 C-900.33 502.34 -900.66 501.68 -901 501 C-903.55491823 500.60786962 -903.55491823 500.60786962 -906.5 500.5 C-909.53125 500.34375 -909.53125 500.34375 -912 500 C-912.33 499.34 -912.66 498.68 -913 498 C-914.86492402 497.61004898 -914.86492402 497.61004898 -917 497.5 C-919.1875 497.34375 -919.1875 497.34375 -921 497 C-921.33 496.34 -921.66 495.68 -922 495 C-924.55491823 494.60786962 -924.55491823 494.60786962 -927.5 494.5 C-930.53125 494.34375 -930.53125 494.34375 -933 494 C-933.33 493.34 -933.66 492.68 -934 492 C-934.99 491.67 -935.98 491.34 -937 491 C-937 489.68 -937 488.36 -937 487 C-936.01 486.67 -935.02 486.34 -934 486 C-933.67 485.34 -933.34 484.68 -933 484 C-931.33333333 483.66666667 -929.66666667 483.33333333 -928 483 C-927.67 482.34 -927.34 481.68 -927 481 C-925.33333333 480.66666667 -923.66666667 480.33333333 -922 480 C-921.67 479.34 -921.34 478.68 -921 478 C-919.33333333 477.66666667 -917.66666667 477.33333333 -916 477 C-915.67 476.34 -915.34 475.68 -915 475 C-913.33333333 474.66666667 -911.66666667 474.33333333 -910 474 C-909.67 473.34 -909.34 472.68 -909 472 C-907.33333333 471.66666667 -905.66666667 471.33333333 -904 471 C-903.67 470.34 -903.34 469.68 -903 469 C-901.33333333 468.66666667 -899.66666667 468.33333333 -898 468 C-897.67 467.34 -897.34 466.68 -897 466 C-895.33333333 465.66666667 -893.66666667 465.33333333 -892 465 C-891.67 464.34 -891.34 463.68 -891 463 C-889.33333333 462.66666667 -887.66666667 462.33333333 -886 462 C-885.67 461.34 -885.34 460.68 -885 460 C-883.33333333 459.66666667 -881.66666667 459.33333333 -880 459 C-879.67 458.34 -879.34 457.68 -879 457 C-877.33333333 456.66666667 -875.66666667 456.33333333 -874 456 C-873.67 455.34 -873.34 454.68 -873 454 C-871.33333333 453.66666667 -869.66666667 453.33333333 -868 453 C-867.67 452.34 -867.34 451.68 -867 451 C-865.33333333 450.66666667 -863.66666667 450.33333333 -862 450 C-861.67 449.34 -861.34 448.68 -861 448 C-859.33333333 447.66666667 -857.66666667 447.33333333 -856 447 C-855.67 446.34 -855.34 445.68 -855 445 C-853.33333333 444.66666667 -851.66666667 444.33333333 -850 444 C-849.67 443.34 -849.34 442.68 -849 442 C-847.33333333 441.66666667 -845.66666667 441.33333333 -844 441 C-843.67 440.34 -843.34 439.68 -843 439 C-841.33333333 438.66666667 -839.66666667 438.33333333 -838 438 C-837.67 437.34 -837.34 436.68 -837 436 C-836.236875 435.896875 -835.47375 435.79375 -834.6875 435.6875 C-831.77187478 435.22878497 -831.77187478 435.22878497 -830 432.5 C-827.65805074 429.57256342 -826.58697572 429.48472645 -823 429 C-822.67 428.34 -822.34 427.68 -822 427 C-820.33333333 426.66666667 -818.66666667 426.33333333 -817 426 C-816.67 425.34 -816.34 424.68 -816 424 C-814.33333333 423.66666667 -812.66666667 423.33333333 -811 423 C-810.67 422.34 -810.34 421.68 -810 421 C-808.33333333 420.66666667 -806.66666667 420.33333333 -805 420 C-804.67 419.34 -804.34 418.68 -804 418 C-802.33333333 417.66666667 -800.66666667 417.33333333 -799 417 C-798.67 416.34 -798.34 415.68 -798 415 C-796.33333333 414.66666667 -794.66666667 414.33333333 -793 414 C-792.67 413.34 -792.34 412.68 -792 412 C-790.33333333 411.66666667 -788.66666667 411.33333333 -787 411 C-786.67 410.34 -786.34 409.68 -786 409 C-784.33333333 408.66666667 -782.66666667 408.33333333 -781 408 C-780.67 407.34 -780.34 406.68 -780 406 C-778.33333333 405.66666667 -776.66666667 405.33333333 -775 405 C-774.67 404.34 -774.34 403.68 -774 403 C-772.33333333 402.66666667 -770.66666667 402.33333333 -769 402 C-768.67 401.34 -768.34 400.68 -768 400 C-767.236875 399.896875 -766.47375 399.79375 -765.6875 399.6875 C-762.77187478 399.22878497 -762.77187478 399.22878497 -761 396.5 C-758.65805074 393.57256342 -757.58697572 393.48472645 -754 393 C-753.67 392.34 -753.34 391.68 -753 391 C-751.33333333 390.66666667 -749.66666667 390.33333333 -748 390 C-747.67 389.34 -747.34 388.68 -747 388 C-745.33333333 387.66666667 -743.66666667 387.33333333 -742 387 C-741.67 386.34 -741.34 385.68 -741 385 C-739.33333333 384.66666667 -737.66666667 384.33333333 -736 384 C-735.67 383.34 -735.34 382.68 -735 382 C-733.33333333 381.66666667 -731.66666667 381.33333333 -730 381 C-729.67 380.34 -729.34 379.68 -729 379 C-727.33333333 378.66666667 -725.66666667 378.33333333 -724 378 C-723.67 377.34 -723.34 376.68 -723 376 C-721.33333333 375.66666667 -719.66666667 375.33333333 -718 375 C-717.67 374.34 -717.34 373.68 -717 373 C-715.33333333 372.66666667 -713.66666667 372.33333333 -712 372 C-711.67 371.34 -711.34 370.68 -711 370 C-709.33333333 369.66666667 -707.66666667 369.33333333 -706 369 C-705.67 368.34 -705.34 367.68 -705 367 C-703.33333333 366.66666667 -701.66666667 366.33333333 -700 366 C-699.67 365.34 -699.34 364.68 -699 364 C-697.33333333 363.66666667 -695.66666667 363.33333333 -694 363 C-693.67 362.34 -693.34 361.68 -693 361 C-691.33333333 360.66666667 -689.66666667 360.33333333 -688 360 C-687.67 359.34 -687.34 358.68 -687 358 C-685.33333333 357.66666667 -683.66666667 357.33333333 -682 357 C-681.67 356.34 -681.34 355.68 -681 355 C-680.236875 354.896875 -679.47375 354.79375 -678.6875 354.6875 C-675.77187478 354.22878497 -675.77187478 354.22878497 -674 351.5 C-671.65805074 348.57256342 -670.58697572 348.48472645 -667 348 C-666.67 347.34 -666.34 346.68 -666 346 C-664.33333333 345.66666667 -662.66666667 345.33333333 -661 345 C-660.67 344.34 -660.34 343.68 -660 343 C-658.33333333 342.66666667 -656.66666667 342.33333333 -655 342 C-654.67 341.34 -654.34 340.68 -654 340 C-652.33333333 339.66666667 -650.66666667 339.33333333 -649 339 C-648.67 338.34 -648.34 337.68 -648 337 C-646.33333333 336.66666667 -644.66666667 336.33333333 -643 336 C-642.67 335.34 -642.34 334.68 -642 334 C-640.33333333 333.66666667 -638.66666667 333.33333333 -637 333 C-636.67 332.34 -636.34 331.68 -636 331 C-634.33333333 330.66666667 -632.66666667 330.33333333 -631 330 C-630.67 329.34 -630.34 328.68 -630 328 C-628.33333333 327.66666667 -626.66666667 327.33333333 -625 327 C-624.67 326.34 -624.34 325.68 -624 325 C-622.33333333 324.66666667 -620.66666667 324.33333333 -619 324 C-618.67 323.34 -618.34 322.68 -618 322 C-616.33333333 321.66666667 -614.66666667 321.33333333 -613 321 C-612.67 320.34 -612.34 319.68 -612 319 C-610.33333333 318.66666667 -608.66666667 318.33333333 -607 318 C-606.67 317.34 -606.34 316.68 -606 316 C-604.33333333 315.66666667 -602.66666667 315.33333333 -601 315 C-600.67 314.34 -600.34 313.68 -600 313 C-599.236875 312.896875 -598.47375 312.79375 -597.6875 312.6875 C-594.77187478 312.22878497 -594.77187478 312.22878497 -593 309.5 C-590.65805074 306.57256342 -589.58697572 306.48472645 -586 306 C-585.67 305.34 -585.34 304.68 -585 304 C-583.33333333 303.66666667 -581.66666667 303.33333333 -580 303 C-579.67 302.34 -579.34 301.68 -579 301 C-577.33333333 300.66666667 -575.66666667 300.33333333 -574 300 C-573.67 299.34 -573.34 298.68 -573 298 C-571.33333333 297.66666667 -569.66666667 297.33333333 -568 297 C-567.67 296.34 -567.34 295.68 -567 295 C-565.33333333 294.66666667 -563.66666667 294.33333333 -562 294 C-561.67 293.34 -561.34 292.68 -561 292 C-559.33333333 291.66666667 -557.66666667 291.33333333 -556 291 C-555.67 290.34 -555.34 289.68 -555 289 C-553.33333333 288.66666667 -551.66666667 288.33333333 -550 288 C-549.67 287.34 -549.34 286.68 -549 286 C-547.33333333 285.66666667 -545.66666667 285.33333333 -544 285 C-543.67 284.34 -543.34 283.68 -543 283 C-541.33333333 282.66666667 -539.66666667 282.33333333 -538 282 C-537.67 281.34 -537.34 280.68 -537 280 C-536.236875 279.896875 -535.47375 279.79375 -534.6875 279.6875 C-531.77187478 279.22878497 -531.77187478 279.22878497 -530 276.5 C-527.65805074 273.57256342 -526.58697572 273.48472645 -523 273 C-522.67 272.34 -522.34 271.68 -522 271 C-520.33333333 270.66666667 -518.66666667 270.33333333 -517 270 C-516.67 269.34 -516.34 268.68 -516 268 C-514.33333333 267.66666667 -512.66666667 267.33333333 -511 267 C-510.67 266.34 -510.34 265.68 -510 265 C-508.33333333 264.66666667 -506.66666667 264.33333333 -505 264 C-504.67 263.34 -504.34 262.68 -504 262 C-502.33333333 261.66666667 -500.66666667 261.33333333 -499 261 C-498.67 260.34 -498.34 259.68 -498 259 C-496.33333333 258.66666667 -494.66666667 258.33333333 -493 258 C-492.67 257.34 -492.34 256.68 -492 256 C-490.33333333 255.66666667 -488.66666667 255.33333333 -487 255 C-486.67 254.34 -486.34 253.68 -486 253 C-484.33333333 252.66666667 -482.66666667 252.33333333 -481 252 C-480.67 251.34 -480.34 250.68 -480 250 C-478.33333333 249.66666667 -476.66666667 249.33333333 -475 249 C-474.67 248.34 -474.34 247.68 -474 247 C-472.33333333 246.66666667 -470.66666667 246.33333333 -469 246 C-468.67 245.34 -468.34 244.68 -468 244 C-466.33333333 243.66666667 -464.66666667 243.33333333 -463 243 C-462.67 242.34 -462.34 241.68 -462 241 C-460.33333333 240.66666667 -458.66666667 240.33333333 -457 240 C-456.67 239.34 -456.34 238.68 -456 238 C-454.33333333 237.66666667 -452.66666667 237.33333333 -451 237 C-450.67 236.34 -450.34 235.68 -450 235 C-448.33333333 234.66666667 -446.66666667 234.33333333 -445 234 C-444.67 233.34 -444.34 232.68 -444 232 C-442.33333333 231.66666667 -440.66666667 231.33333333 -439 231 C-438.67 230.34 -438.34 229.68 -438 229 C-437.236875 228.896875 -436.47375 228.79375 -435.6875 228.6875 C-432.77187478 228.22878497 -432.77187478 228.22878497 -431 225.5 C-428.65805074 222.57256342 -427.58697572 222.48472645 -424 222 C-423.67 221.34 -423.34 220.68 -423 220 C-421.33333333 219.66666667 -419.66666667 219.33333333 -418 219 C-417.67 218.34 -417.34 217.68 -417 217 C-415.33333333 216.66666667 -413.66666667 216.33333333 -412 216 C-411.67 215.34 -411.34 214.68 -411 214 C-409.33333333 213.66666667 -407.66666667 213.33333333 -406 213 C-405.67 212.34 -405.34 211.68 -405 211 C-403.33333333 210.66666667 -401.66666667 210.33333333 -400 210 C-399.67 209.34 -399.34 208.68 -399 208 C-397.33333333 207.66666667 -395.66666667 207.33333333 -394 207 C-393.67 206.34 -393.34 205.68 -393 205 C-391.33333333 204.66666667 -389.66666667 204.33333333 -388 204 C-387.67 203.34 -387.34 202.68 -387 202 C-385.33333333 201.66666667 -383.66666667 201.33333333 -382 201 C-381.67 200.34 -381.34 199.68 -381 199 C-379.33333333 198.66666667 -377.66666667 198.33333333 -376 198 C-375.67 197.34 -375.34 196.68 -375 196 C-373.33333333 195.66666667 -371.66666667 195.33333333 -370 195 C-369.67 194.34 -369.34 193.68 -369 193 C-367.33333333 192.66666667 -365.66666667 192.33333333 -364 192 C-363.67 191.34 -363.34 190.68 -363 190 C-362.236875 189.896875 -361.47375 189.79375 -360.6875 189.6875 C-357.77187478 189.22878497 -357.77187478 189.22878497 -356 186.5 C-353.65805074 183.57256342 -352.58697572 183.48472645 -349 183 C-348.67 182.34 -348.34 181.68 -348 181 C-346.33333333 180.66666667 -344.66666667 180.33333333 -343 180 C-342.67 179.34 -342.34 178.68 -342 178 C-340.33333333 177.66666667 -338.66666667 177.33333333 -337 177 C-336.67 176.34 -336.34 175.68 -336 175 C-334.33333333 174.66666667 -332.66666667 174.33333333 -331 174 C-330.67 173.34 -330.34 172.68 -330 172 C-328.33333333 171.66666667 -326.66666667 171.33333333 -325 171 C-324.67 170.34 -324.34 169.68 -324 169 C-322.33333333 168.66666667 -320.66666667 168.33333333 -319 168 C-318.67 167.34 -318.34 166.68 -318 166 C-316.33333333 165.66666667 -314.66666667 165.33333333 -313 165 C-312.67 164.34 -312.34 163.68 -312 163 C-310.33333333 162.66666667 -308.66666667 162.33333333 -307 162 C-306.67 161.34 -306.34 160.68 -306 160 C-304.33333333 159.66666667 -302.66666667 159.33333333 -301 159 C-300.67 158.34 -300.34 157.68 -300 157 C-298.33333333 156.66666667 -296.66666667 156.33333333 -295 156 C-294.67 155.34 -294.34 154.68 -294 154 C-292.33333333 153.66666667 -290.66666667 153.33333333 -289 153 C-288.67 152.34 -288.34 151.68 -288 151 C-286.33333333 150.66666667 -284.66666667 150.33333333 -283 150 C-282.67 149.34 -282.34 148.68 -282 148 C-280.33333333 147.66666667 -278.66666667 147.33333333 -277 147 C-276.67 146.34 -276.34 145.68 -276 145 C-274.33333333 144.66666667 -272.66666667 144.33333333 -271 144 C-270.67 143.34 -270.34 142.68 -270 142 C-269.236875 141.896875 -268.47375 141.79375 -267.6875 141.6875 C-264.77187478 141.22878497 -264.77187478 141.22878497 -263 138.5 C-260.65805074 135.57256342 -259.58697572 135.48472645 -256 135 C-255.67 134.34 -255.34 133.68 -255 133 C-253.33333333 132.66666667 -251.66666667 132.33333333 -250 132 C-249.67 131.34 -249.34 130.68 -249 130 C-247.33333333 129.66666667 -245.66666667 129.33333333 -244 129 C-243.67 128.34 -243.34 127.68 -243 127 C-241.33333333 126.66666667 -239.66666667 126.33333333 -238 126 C-237.67 125.34 -237.34 124.68 -237 124 C-235.33333333 123.66666667 -233.66666667 123.33333333 -232 123 C-231.67 122.34 -231.34 121.68 -231 121 C-229.33333333 120.66666667 -227.66666667 120.33333333 -226 120 C-225.67 119.34 -225.34 118.68 -225 118 C-223.33333333 117.66666667 -221.66666667 117.33333333 -220 117 C-219.67 116.34 -219.34 115.68 -219 115 C-217.33333333 114.66666667 -215.66666667 114.33333333 -214 114 C-213.67 113.34 -213.34 112.68 -213 112 C-211.33333333 111.66666667 -209.66666667 111.33333333 -208 111 C-207.67 110.34 -207.34 109.68 -207 109 C-205.33333333 108.66666667 -203.66666667 108.33333333 -202 108 C-201.67 107.34 -201.34 106.68 -201 106 C-200.236875 105.896875 -199.47375 105.79375 -198.6875 105.6875 C-195.77187478 105.22878497 -195.77187478 105.22878497 -194 102.5 C-191.65805074 99.57256342 -190.58697572 99.48472645 -187 99 C-186.67 98.34 -186.34 97.68 -186 97 C-184.33333333 96.66666667 -182.66666667 96.33333333 -181 96 C-180.67 95.34 -180.34 94.68 -180 94 C-178.33333333 93.66666667 -176.66666667 93.33333333 -175 93 C-174.67 92.34 -174.34 91.68 -174 91 C-172.33333333 90.66666667 -170.66666667 90.33333333 -169 90 C-168.67 89.34 -168.34 88.68 -168 88 C-166.33333333 87.66666667 -164.66666667 87.33333333 -163 87 C-162.67 86.34 -162.34 85.68 -162 85 C-160.33333333 84.66666667 -158.66666667 84.33333333 -157 84 C-156.67 83.34 -156.34 82.68 -156 82 C-154.33333333 81.66666667 -152.66666667 81.33333333 -151 81 C-150.67 80.34 -150.34 79.68 -150 79 C-148.33333333 78.66666667 -146.66666667 78.33333333 -145 78 C-144.67 77.34 -144.34 76.68 -144 76 C-142.33333333 75.66666667 -140.66666667 75.33333333 -139 75 C-138.67 74.34 -138.34 73.68 -138 73 C-136.33333333 72.66666667 -134.66666667 72.33333333 -133 72 C-132.67 71.34 -132.34 70.68 -132 70 C-130.33333333 69.66666667 -128.66666667 69.33333333 -127 69 C-126.67 68.34 -126.34 67.68 -126 67 C-124.33333333 66.66666667 -122.66666667 66.33333333 -121 66 C-120.67 65.34 -120.34 64.68 -120 64 C-118.33333333 63.66666667 -116.66666667 63.33333333 -115 63 C-114.67 62.34 -114.34 61.68 -114 61 C-113.236875 60.896875 -112.47375 60.79375 -111.6875 60.6875 C-108.77187478 60.22878497 -108.77187478 60.22878497 -107 57.5 C-104.65805074 54.57256342 -103.58697572 54.48472645 -100 54 C-99.67 53.34 -99.34 52.68 -99 52 C-97.33333333 51.66666667 -95.66666667 51.33333333 -94 51 C-93.67 50.34 -93.34 49.68 -93 49 C-91.33333333 48.66666667 -89.66666667 48.33333333 -88 48 C-87.67 47.34 -87.34 46.68 -87 46 C-85.33333333 45.66666667 -83.66666667 45.33333333 -82 45 C-81.67 44.34 -81.34 43.68 -81 43 C-79.33333333 42.66666667 -77.66666667 42.33333333 -76 42 C-75.67 41.34 -75.34 40.68 -75 40 C-73.33333333 39.66666667 -71.66666667 39.33333333 -70 39 C-69.67 38.34 -69.34 37.68 -69 37 C-67.33333333 36.66666667 -65.66666667 36.33333333 -64 36 C-63.67 35.34 -63.34 34.68 -63 34 C-61.33333333 33.66666667 -59.66666667 33.33333333 -58 33 C-57.67 32.34 -57.34 31.68 -57 31 C-55.33333333 30.66666667 -53.66666667 30.33333333 -52 30 C-51.67 29.34 -51.34 28.68 -51 28 C-49.33333333 27.66666667 -47.66666667 27.33333333 -46 27 C-45.67 26.34 -45.34 25.68 -45 25 C-43.33333333 24.66666667 -41.66666667 24.33333333 -40 24 C-39.67 23.34 -39.34 22.68 -39 22 C-37.33333333 21.66666667 -35.66666667 21.33333333 -34 21 C-33.67 20.34 -33.34 19.68 -33 19 C-32.236875 18.896875 -31.47375 18.79375 -30.6875 18.6875 C-27.77187478 18.22878497 -27.77187478 18.22878497 -26 15.5 C-23.65805074 12.57256342 -22.58697572 12.48472645 -19 12 C-18.67 11.34 -18.34 10.68 -18 10 C-16.33333333 9.66666667 -14.66666667 9.33333333 -13 9 C-12.67 8.34 -12.34 7.68 -12 7 C-10.33333333 6.66666667 -8.66666667 6.33333333 -7 6 C-6.67 5.34 -6.34 4.68 -6 4 C-3.4375 3.375 -3.4375 3.375 -1 3 C-0.67 2.01 -0.34 1.02 0 0 Z " fill="#FECE26" transform="translate(1049,13)"/>
<path d="M0 0 C1.32 0.33 2.64 0.66 4 1 C2.43910974 2.41844009 0.8762111 3.83467025 -0.6875 5.25 C-1.55761719 6.03890625 -2.42773438 6.8278125 -3.32421875 7.640625 C-5.82420863 9.84499564 -8.37945728 11.94133941 -11 14 C-11 13.01 -11 12.02 -11 11 C-10.34 11 -9.68 11 -9 11 C-8.67 10.01 -8.34 9.02 -8 8 C-7.34 8 -6.68 8 -6 8 C-5.67 7.01 -5.34 6.02 -5 5 C-4.34 5 -3.68 5 -3 5 C-2.67 4.01 -2.34 3.02 -2 2 C-1.34 2 -0.68 2 0 2 C0 1.34 0 0.68 0 0 Z " fill="#636D8A" transform="translate(690,367)"/>
<path d="M0 0 C1.32 0.33 2.64 0.66 4 1 C-1.16923077 5.92307692 -1.16923077 5.92307692 -5.375 6.3125 C-6.674375 6.1578125 -6.674375 6.1578125 -8 6 C-8 5.67 -8 5.34 -8 5 C-6.35 5 -4.7 5 -3 5 C-2.67 4.01 -2.34 3.02 -2 2 C-1.34 2 -0.68 2 0 2 C0 1.34 0 0.68 0 0 Z " fill="#69738F" transform="translate(651,403)"/>
<path d="M0 0 C1.32 0.33 2.64 0.66 4 1 C1.03 3.475 1.03 3.475 -2 6 C-2.33 5.01 -2.66 4.02 -3 3 C-2.01 3 -1.02 3 0 3 C0 2.01 0 1.02 0 0 Z " fill="#23315A" transform="translate(667,388)"/>
</svg>
