<?xml version="1.0" encoding="UTF-8" standalone="no"?>
<!-- Created with Inkscape (http://www.inkscape.org/) -->

<svg
   width="107.7781mm"
   height="104.40775mm"
   viewBox="0 0 107.7781 104.40775"
   version="1.1"
   id="svg1"
   xml:space="preserve"
   xmlns="http://www.w3.org/2000/svg"
   xmlns:svg="http://www.w3.org/2000/svg"><defs
     id="defs1" /><g
     id="layer2"
     transform="translate(-784.35578,41.255165)"><g
       id="g542"><path
         style="fill:#ffffff;fill-opacity:1;stroke:#ffffff;stroke-width:4;stroke-linejoin:round;stroke-dasharray:none;stroke-opacity:1"
         d="m 883.65273,22.031576 c -0.0553,0.700255 -0.32044,1.393167 -0.50817,2.068971 -0.34676,1.248351 -0.72704,2.491777 -1.19782,3.70237 -1.53306,3.94213 -3.38413,7.650973 -5.88024,11.107111 -8.07446,11.180007 -20.66556,18.914325 -34.44656,20.254142 -3.94096,0.383147 -7.84362,0.163021 -11.76047,-0.217786 -4.26276,-0.414438 -8.58529,-1.880283 -12.52272,-3.520879 -1.29509,-0.539622 -2.50485,-1.333577 -3.81127,-1.81489 l -0.98004,1.524505 c 1.05338,0.388085 2.03203,1.026118 3.04901,1.506355 0.91832,0.433652 1.88237,0.810677 2.83123,1.179681 4.05569,1.57721 8.429,2.666129 12.74051,3.085306 14.33948,1.394118 28.57765,-3.160064 39.31046,-12.849402 2.73225,-2.466608 5.07799,-5.305535 7.22325,-8.275886 2.76905,-3.834061 4.80678,-8.072137 6.35211,-12.522723 0.52944,-1.524798 1.34301,-3.377777 1.34301,-5.009089 z"
         id="path547" /><path
         style="fill:#ffffff;fill-opacity:1;stroke:#ffffff;stroke-width:4;stroke-linejoin:round;stroke-dasharray:none;stroke-opacity:1"
         d="m 807.86303,-30.237179 0.76226,1.524505 c 0.81934,-0.08625 1.79227,-1.052929 2.50454,-1.48821 1.95075,-1.192123 3.93967,-2.208245 5.98913,-3.176048 5.29089,-2.498483 11.13945,-3.489229 16.87845,-4.047201 2.66019,-0.258635 5.43726,0.07187 8.0581,0.32668 17.6876,1.719654 33.31968,14.276373 39.70974,30.7078932 1.86669,4.8000292 2.70165,9.743313 3.1942,14.8094805 0.25404,2.6129863 -0.21778,5.2520323 -0.21778,7.8403133 l 1.74229,0.32668 c 0,-0.843245 0.13671,-1.670618 0.21778,-2.504545 0.11242,-1.156286 0.10999,-2.462194 0,-3.593477 -0.0874,-0.8989405 0.0874,-1.8233899 0,-2.7223307 -0.7746,-7.96725783 -2.88099,-15.6348399 -7.00546,-22.5409003 -2.51258,-4.207092 -5.68381,-8.143432 -9.32852,-11.43379 -12.21788,-11.030007 -29.72213,-15.618543 -45.73517,-11.615281 -6.0421,1.510528 -11.64422,4.079435 -16.76956,7.586231 z"
         id="path543" /><path
         style="fill:#ffffff;fill-opacity:1;stroke:#ffffff;stroke-width:4;stroke-linejoin:round;stroke-dasharray:none;stroke-opacity:1"
         d="m 807.75414,52.08611 c 0.0632,-0.343209 0.17067,-0.685448 0.36298,-0.98004 0.12158,-0.186243 0.40845,-0.400267 0.32668,-0.653359 -0.0779,-0.241102 -0.49779,-0.436862 -0.68966,-0.580762 -0.47592,-0.35694 -0.95213,-0.715569 -1.41561,-1.088932 -1.66131,-1.338276 -3.17231,-2.809338 -4.68241,-4.319434 -4.89869,-4.898681 -8.26648,-10.9429 -10.74413,-17.314025 -1.35549,-3.485528 -2.18134,-7.409273 -2.54085,-11.107111 -0.0703,-0.723331 -0.0385,-1.453728 -0.10889,-2.177864 -0.18084,-1.860091 -0.18084,-3.802364 0,-5.6624487 0.19917,-2.0486139 0.29477,-4.0671731 0.68966,-6.0980214 1.11394,-5.7288584 3.17652,-11.2662631 6.20691,-16.2250929 1.60242,-2.622138 3.46027,-5.126223 5.51726,-7.40474 0.85597,-0.948157 1.81892,-1.818924 2.72233,-2.722331 0.35735,-0.357346 0.83676,-0.664824 1.08893,-1.088932 l -1.19782,-1.088933 c -0.6351,0.167135 -1.07203,0.745351 -1.52451,1.197826 -0.92907,0.929075 -1.84468,1.859054 -2.72233,2.831224 -3.54025,3.921513 -6.17698,8.353416 -8.40293,13.0671888 -1.84756,3.9124867 -3.20644,8.44048216 -3.68422,12.7405089 -0.16966,1.5269845 -0.39577,3.0440327 -0.54447,4.5735161 -0.11399,1.1724899 0,2.4146532 0,3.5934772 0,0.821604 -0.0794,1.687353 0,2.504544 0.34245,3.522295 0.82479,7.020045 1.77859,10.453751 1.76514,6.354476 4.81116,12.221565 8.85666,17.422918 2.17777,2.8 4.67439,5.430133 7.44103,7.658823 1.03085,0.83041 2.07962,1.87466 3.2668,2.468249 z"
         id="path545" /><path
         style="fill:#ffcf27;fill-opacity:1;stroke:#ffcf27;stroke-width:8;stroke-linejoin:round;stroke-dasharray:none;stroke-opacity:1"
         d="m 809.82311,49.726754 c -2.20682,0.521058 -2.84395,3.544447 -1.30672,5.081687 0.80027,0.800269 1.99668,0.989038 3.04901,0.725957 1.94106,-0.485268 2.68671,-3.077078 1.5971,-4.646114 -0.71873,-1.034984 -2.13204,-1.446597 -3.33939,-1.16153 z"
         id="path548" /><path
         style="fill:#ffcf27;fill-opacity:1;stroke:#ffcf27;stroke-width:8;stroke-linejoin:round;stroke-dasharray:none;stroke-opacity:1"
         d="m 884.63277,16.296536 c -0.97199,0.202493 -1.87797,0.75655 -2.28676,1.70599 -0.92554,2.149638 0.85134,4.752807 3.2668,4.283138 1.44982,-0.28191 2.65182,-1.679424 2.50455,-3.194206 -0.16152,-1.6613 -1.74938,-3.156428 -3.48459,-2.794922 z"
         id="path546" /><path
         style="fill:#ffcf27;fill-opacity:1;stroke:#ffcf27;stroke-width:8;stroke-linejoin:round;stroke-dasharray:none;stroke-opacity:1"
         d="m 805.2496,-30.963136 c -0.47007,0.09793 -0.91998,0.249037 -1.30672,0.544466 -2.50218,1.911387 -0.61302,6.108157 2.50454,5.372071 0.51618,-0.121874 1.02776,-0.360589 1.41561,-0.725957 2.08404,-1.963222 0.26517,-5.790291 -2.61343,-5.19058 z"
         id="path544" /></g></g></svg>
