<?xml version="1.0" encoding="UTF-8" standalone="no"?>
<!-- Created with Inkscape (http://www.inkscape.org/) -->

<svg
   width="46.000015mm"
   height="97.90509mm"
   viewBox="0 0 46.000015 97.90509"
   version="1.1"
   id="svg1"
   xml:space="preserve"
   xmlns="http://www.w3.org/2000/svg"
   xmlns:svg="http://www.w3.org/2000/svg"><defs
     id="defs1" /><g
     id="layer1"
     transform="translate(-105.46862,122.12272)"><g
       id="g530"
       transform="translate(178.2,-26.747369)"><g
         id="g534"
         transform="rotate(-45,-17.460294,90.642003)"><path
           style="fill:#ffffff;fill-opacity:1"
           d="m 39.124709,-11.697882 -6.168761,-6.17083 3.433228,-7.210688 3.433229,-7.210676 2.953293,-6.217708 2.953296,-6.217709 1.63039,-3.439583 1.6304,-3.439583 1.19455,-2.378815 1.19455,-2.378815 14.41737,-8.932123 14.41738,-8.932122 0.267,0.0041 0.267,0.0041 4.762496,5.694822 4.7625,5.694821 2.11653,1.775603 2.116531,1.775602 3.57201,3.028562 3.572019,3.028562 -0.0164,0.434504 -0.0164,0.434504 -1.810659,2.886934 -1.81067,2.886934 -0.58844,0.926042 -0.58844,0.926041 -2.37269,3.836459 -2.372691,3.836458 -2.5346,4.101042 -2.53461,4.101041 -1.68747,2.645833 -1.68746,2.64583 -5.806376,2.753515 -5.80638,2.753513 -6.08541,2.90217 -6.08542,2.90216 -2.77813,1.31305 -2.77812,1.3130504 -4.39561,2.09326 -4.39561,2.09325 -0.10231,-0.0461 -0.1023,-0.0461 z m 30.106195,-13.337158 1.18327,-0.27266 1.64733,-0.7862 1.64732,-0.7862 1.5136,-1.382069 1.51359,-1.382074 0.84186,-1.322916 0.84185,-1.322917 0.56741,-1.527991 0.56742,-1.52799 0.16651,-1.791594 0.16651,-1.791595 -0.31919,-1.892358 -0.31919,-1.892358 -0.90713,-1.892864 -0.90713,-1.892864 -1.65992,-1.659924 -1.65993,-1.659925 -1.67853,-0.847319 -1.67853,-0.847319 -1.75207,-0.371376 -1.75207,-0.371377 -1.34674,-0.0046 -1.34674,-0.0046 -1.96877,0.503529 -1.96878,0.503529 -1.60877,0.942872 -1.60877,0.942872 -1.47882,1.597304 -1.47882,1.597304 -0.80083,1.677993 -0.80083,1.677994 -0.30383,1.416674 -0.30382,1.416675 0.12761,2.39444 0.12761,2.394439 0.85613,2.049861 0.85613,2.049862 1.85826,1.989805 1.85826,1.989807 1.90134,0.91451 1.90135,0.91451 1.04462,0.24477 1.04463,0.24476 2.11667,0.0201 2.11666,0.0201 z"
           id="path531" /><path
           style="fill:#ffcf27;fill-opacity:1"
           d="m 22.051251,5.4644684 -0.104198,-0.1837 3.872908,-8.06979 3.872907,-8.0698004 1.568425,-3.37343 1.568425,-3.37344 h 0.194594 0.194595 l 5.971136,5.87309 5.971131,5.8731004 v 0.30848 0.30848 l -1.596749,0.71658 -1.596754,0.71658 -4.422517,2.12654 -4.422517,2.12655002 -1.322917,0.60260998 -1.322916,0.60261 -4.160678,1.99962 -4.160678,1.99963 z"
           id="path530" /></g></g></g></svg>
