<?xml version="1.0" encoding="UTF-8" standalone="no"?>
<!-- Created with Inkscape (http://www.inkscape.org/) -->

<svg
   width="44.959126mm"
   height="44.890266mm"
   viewBox="0 0 44.959126 44.890266"
   version="1.1"
   id="svg1"
   xml:space="preserve"
   xmlns="http://www.w3.org/2000/svg"
   xmlns:svg="http://www.w3.org/2000/svg"><defs
     id="defs1" /><g
     id="layer2"
     transform="translate(-185.47187,51.930284)"><path
       style="fill:#ffffff;fill-opacity:1;stroke:none"
       d="m 188.36224,-44.434106 v 29.897917 c -2.83987,0.07473 -3.72966,4.5971066 -2.02847,6.5704846 0.95967,1.113219 3.07493,0.967621 4.40972,0.837848 0.7881,-0.07662 1.5655,-0.388498 2.02848,-1.058333 0.45524,-0.658649 0.26607,-1.440194 1.14652,-1.76389 1.99698,-0.7341806 4.52444,-0.5637216 6.61459,-0.9701366 6.3059,-1.226148 12.74528,-1.772695 19.05,-2.998613 0.74126,-0.144133 2.19536,-0.543305 2.91041,-0.308678 0.74028,0.242903 0.93682,1.276569 1.5875,1.719792 0.92381,0.629253 3.71309,0.634094 4.7625,0.264583 1.29909,-0.457425 1.5875,-1.882028 1.5875,-3.086807 0,-2.07814 -0.12768,-4.034533 -2.64583,-4.233333 v -19.84375 c 2.51815,-0.198801 2.64583,-2.15519 2.64583,-4.233334 0,-1.204779 -0.28841,-2.629381 -1.5875,-3.086807 -1.04941,-0.36951 -3.8387,-0.36467 -4.7625,0.264584 -0.65067,0.443214 -0.84723,1.476892 -1.5875,1.719791 -0.71505,0.234628 -2.16914,-0.164541 -2.91041,-0.308678 -6.30471,-1.225914 -12.71392,-1.939495 -19.05,-2.998613 -3.58612,-0.599444 -4.1833,-0.477242 -6.61459,-0.970137 -0.91937,-0.186383 -0.69128,-1.105237 -1.14652,-1.76389 -0.46298,-0.669839 -1.24038,-0.981711 -2.02848,-1.058333 -1.33479,-0.129773 -3.45005,-0.275371 -4.40972,0.837848 -1.70119,1.973386 -0.8114,6.495748 2.02847,6.570485 m 2.38125,-5.027083 v 2.645833 h -2.64583 l 0.13229,-2.337151 2.51354,-0.308682 m 32.27917,7.408333 c 0.11113,1.407626 1.00598,2.356304 2.38125,2.645834 v 19.84375 c -1.37527,0.289533 -2.27012,1.238207 -2.38125,2.645833 l -19.31458,2.99861 -6.61459,1.014238 -3.43958,0.485069 -1.32292,-1.322917 -1.5875,-0.79375 v -29.897917 l 1.5875,-0.79375 1.32292,-1.322916 3.43958,0.485068 6.61459,1.014238 19.31458,2.99861 m 5.02708,-2.38125 -0.13229,2.337152 -2.51354,0.308682 v -2.645834 h 2.64583 m 0,29.897917 h -2.64583 v -2.645833 l 2.51354,0.308677 0.13229,2.337156 m -37.30625,2.38125 v 2.6458326 l -2.51354,-0.308682 -0.13229,-2.3371506 z"
       id="path540" /></g></svg>
