<?xml version="1.0" encoding="UTF-8" standalone="no"?>
<!-- Created with Inkscape (http://www.inkscape.org/) -->

<svg
   width="59.603985mm"
   height="46.337189mm"
   viewBox="0 0 59.603985 46.337189"
   version="1.1"
   id="svg1"
   xml:space="preserve"
   xmlns="http://www.w3.org/2000/svg"
   xmlns:svg="http://www.w3.org/2000/svg"><defs
     id="defs1" /><g
     id="layer2"
     transform="translate(-627.53881,-355.19673)"><path
       style="fill:#ffffff;fill-opacity:1;stroke:none"
       d="m 645.83146,370.02129 c 2.74375,0 6.50204,-0.57335 7.40833,-3.70417 0.23012,0.0424 9.73615,2.37407 10.31875,2.77813 0.79688,0.55268 0.9259,1.96568 1.41111,2.77813 1.35429,2.26764 3.67061,3.43958 6.26181,3.43958 0.77436,3.66876 3.3905,8.52509 3.88056,12.17083 0.0876,1.05131 -1.43599,2.02484 -1.94028,2.91042 -1.35118,2.37279 -1.2105,5.6778 0.26458,7.9375 4.06063,6.22053 14.39591,2.70251 13.67014,-4.7625 -0.28819,-2.96418 -2.18221,-5.53858 -5.02708,-6.52639 -0.76833,-0.26677 -2.26327,-0.0792 -2.82223,-0.66145 -0.13164,-0.13713 -3.55484,-8.98788 -3.88055,-11.33299 -0.15073,-1.08522 1.78333,-2.25904 2.38125,-3.175 1.52771,-2.34032 1.30597,-5.9405 -0.26458,-8.20209 -2.94689,-4.24351 -11.3657,-4.41768 -12.87639,1.32292 l -10.31875,-2.64584 c 0,-6.61518 -8.59811,-9.60655 -12.96459,-4.7625 -1.84816,2.05031 -2.43924,5.40567 -1.27882,7.9375 0.49417,1.0782 2.22395,2.56196 1.76389,3.70417 -0.54959,1.36451 -5.17051,10.90316 -5.60034,11.33299 -0.6867,0.6867 -2.20097,0.18772 -3.08681,0.39688 -3.18384,0.75173 -5.24986,3.63949 -5.55625,6.79097 -0.70911,7.29365 9.13769,10.6141 13.40556,5.02708 1.43676,-1.88085 1.9533,-4.92175 1.05833,-7.14375 -0.40564,-1.00709 -2.04046,-2.65471 -1.71979,-3.70417 1.74588,-3.99583 3.76187,-7.89132 5.51215,-11.90625 m 1.05833,-10.80382 c 4.27733,-0.23762 4.53209,6.49462 0.26459,6.79097 -4.40725,0.30606 -4.67546,-6.54592 -0.26459,-6.79097 m 23.54792,5.55625 c 4.24934,-0.82626 6.03958,5.20279 1.85208,6.4823 -4.1425,1.26576 -6.10061,-5.6562 -1.85208,-6.4823 m -35.98333,20.10834 c 3.85809,-0.75019 5.60635,5.17873 1.85208,6.48229 -4.5114,1.56646 -6.46787,-5.58478 -1.85208,-6.48229 m 44.18541,6.08541 c 0.84687,-0.17643 2.17237,-0.17989 2.91042,0.30868 2.42501,1.6053 1.73145,5.47617 -1.05833,6.17362 -4.10845,1.02711 -5.94676,-5.62924 -1.85209,-6.4823 z"
       id="path538" /></g></svg>
