<?xml version="1.0" encoding="UTF-8" standalone="no"?>
<!-- Created with Inkscape (http://www.inkscape.org/) -->

<svg
   width="54.768841mm"
   height="35.718758mm"
   viewBox="0 0 54.768841 35.718758"
   version="1.1"
   id="svg1"
   xml:space="preserve"
   xmlns="http://www.w3.org/2000/svg"
   xmlns:svg="http://www.w3.org/2000/svg"><defs
     id="defs1" /><g
     id="layer2"
     transform="translate(-142.69695,-13.117898)"><path
       style="fill:#ffffff;fill-opacity:1;stroke:none"
       d="m 142.69696,13.117902 v 6.35 h 2.11667 v 23.01875 h -2.11667 v 6.35 h 6.35 v -2.116666 l 42.39449,-0.02413 0.003,2.129147 1.78802,0.01165 h 4.23333 v -6.35 h -2.11667 v -23.01875 h 2.11667 v -6.35 h -6.35 v 2.116667 c -20.66027,-0.0052 -20.75876,-0.007 -42.36669,0.0945 l 0.0205,-2.211172 h -6.07252 m 52.65208,2.116667 v 2.116667 h -2.11666 l -0.0732,-2.139964 2.18988,0.0233 m -3.96875,2.116667 v 2.116666 h 1.85209 v 23.01875 h -1.85209 v 2.116667 l -42.39326,0.01706 0.0171,-2.133728 H 146.9304 V 19.4679 h 1.85208 v -2.11666 h 42.59791 M 146.9303,44.60332 v 2.116667 h -2.11667 V 44.60332 h 2.11667 m 48.41874,0 v 2.116667 h -2.11666 V 44.60332 Z"
       id="path539" /></g></svg>
