<?xml version="1.0" encoding="UTF-8" standalone="no"?>
<!-- Created with Inkscape (http://www.inkscape.org/) -->

<svg
   width="41.659763mm"
   height="41.351048mm"
   viewBox="0 0 41.659763 41.351048"
   version="1.1"
   id="svg1"
   xml:space="preserve"
   xmlns="http://www.w3.org/2000/svg"
   xmlns:svg="http://www.w3.org/2000/svg"><defs
     id="defs1" /><g
     id="layer2"
     transform="translate(-90.892945,-101.08372)"><path
       style="fill:#ffffff;fill-opacity:1;stroke:none"
       d="m 116.40072,108.66475 c -0.98957,0.80108 -2.27135,0.46019 -3.49233,0.62363 -1.12769,0.15095 -2.21367,0.48023 -3.36758,0.24945 -1.36509,-0.27302 -2.69622,-1.41817 -3.86651,-2.12034 -2.11555,-1.26933 -4.30779,-2.41004 -6.423373,-3.6794 -2.492975,-1.49579 -5.105006,-3.65264 -7.545918,-0.686 -1.601978,1.94703 -0.590812,3.89931 0.935444,5.42557 l 5.42557,5.42557 c 0.831756,0.83175 1.949387,1.66912 2.556877,2.68161 1.22744,2.04574 -0.0164,3.99228 -0.12473,6.11157 -0.13183,2.58036 0.59419,5.10291 2.24507,7.10937 1.86921,2.2718 5.35437,3.2584 8.16954,2.93105 1.80101,-0.20942 3.50476,-1.05138 5.30084,-0.31182 1.12598,0.46365 1.96299,1.58882 2.80633,2.43216 l 4.67722,4.67722 c 0.78048,0.78048 1.55206,1.78737 2.49452,2.36979 1.7052,1.05377 3.59052,0.4541 4.80194,-1.06018 1.63802,-2.04751 0.14716,-3.9334 -1.12253,-5.61266 -1.50579,-1.99153 -2.97066,-4.04349 -4.36539,-6.11156 -0.70481,-1.04506 -1.61521,-1.93167 -2.12035,-3.11814 -0.76959,-1.80766 0.007,-3.27133 0.43655,-5.0514 0.29927,-1.2399 0.58797,-3.29755 4.0224,-8.69963 1.16471,-1.94118 2.3957,-3.84266 3.58586,-5.76856 0.35248,-0.57037 1.12254,-1.42229 1.12254,-2.12033 0,-0.93737 -1.78097,-2.47133 -2.49451,-2.99343 -1.18092,-0.86407 -2.42807,0.45904 -3.42997,1.06017 -1.94133,1.16481 -3.82731,2.42113 -5.76857,3.58587 m 8.63726,-1.46552 c -1.73724,2.52179 -3.25661,5.2614 -4.83312,7.8889 -0.92745,1.54575 -2.10195,3.01719 -2.77515,4.7084 -0.43547,1.09398 -0.40077,2.29893 -0.68599,3.42995 -0.4936,1.9574 -1.10254,3.53741 -0.62363,5.61267 0.29272,1.26841 1.23137,2.26451 1.93325,3.30522 1.49237,2.21283 3.07387,4.40361 4.73958,6.48575 0.64239,0.80299 2.6618,2.94452 1.09135,3.71059 -0.91187,0.44481 -2.37228,-1.62392 -2.96224,-2.21388 l -4.8643,-4.86431 c -0.94214,-0.94213 -1.80544,-2.02455 -3.05578,-2.55688 -2.93856,-1.25107 -5.38225,0.34069 -8.32545,0.0935 -1.78756,-0.15011 -3.85953,-1.07497 -4.83312,-2.65043 -0.8249,-1.33483 -1.25417,-2.8577 -1.1849,-4.42776 0.12625,-2.86156 1.45048,-5.23166 -0.24945,-7.98245 -0.62488,-1.01118 -1.71909,-1.84383 -2.55687,-2.68161 l -4.864312,-4.86431 c -0.665749,-0.66575 -2.541632,-1.9485 -1.496705,-2.99341 0.999807,-0.99981 3.016445,0.81206 3.897675,1.34079 2.188842,1.31331 4.421512,2.55313 6.610472,3.8665 1.31952,0.79171 2.63599,1.80507 4.11595,2.24506 1.5756,0.46843 3.1323,0.11744 4.7084,-0.0935 1.04046,-0.13928 2.20308,0.14394 3.21169,-0.15591 2.295,-0.6823 4.69007,-2.86554 6.70401,-4.14713 1.87939,-1.19598 4.0409,-2.16884 5.73738,-3.61704 l 0.56127,0.56126 m -14.62318,12.97147 v 0"
       id="path536" /><path
       d="m 114.8929,117.5526 c -5.60942,-3.78313 -9.68391,4.52499 -4.5525,7.17173 4.38252,2.26047 8.64469,-4.41188 4.5525,-7.17173"
       style="fill:#ffcf27;fill-opacity:1;stroke:none"
       id="path1" /></g></svg>
